<?xml version="1.0" encoding="UTF-8"?>
<!DOCTYPE svg PUBLIC "-//W3C//DTD SVG 1.1//EN" "http://www.w3.org/Graphics/SVG/1.1/DTD/svg11.dtd">
<svg version="1.1" xmlns="http://www.w3.org/2000/svg" xmlns:xlink="http://www.w3.org/1999/xlink" x="0px" y="0px" width="700" height="96" viewBox="0, 0, 700, 96">
  <g id="Background">
    <rect x="0" y="0" width="700" height="96" fill="#FFFFFF"/>
  </g>
  <g id="Layer 1">
    <path d="M319.698,-0.01 L700,-1 L700,96 L277.783,96 z" fill="#80C8FF"/>
    <g>
      <path d="M600.393,72.749 L599.45,72.749 L597.578,66.281 C597.395,65.65 597.219,65.029 597.113,64.385 C596.924,65.004 596.792,65.635 596.611,66.256 L594.778,72.749 L593.825,72.749 L591.28,63.559 L592.197,63.559 L593.914,69.934 C594.077,70.567 594.209,71.198 594.339,71.831 C594.455,71.187 594.623,70.552 594.802,69.934 L596.624,63.559 L597.617,63.559 L599.475,70.023 C599.63,70.552 599.835,71.289 599.916,71.831 C600.053,71.238 600.17,70.63 600.325,70.036 L602.058,63.559 L602.934,63.559 L600.393,72.749" fill="#FFFFFF"/>
      <path d="M604.069,66.114 L604.884,66.114 L604.884,72.749 L604.069,72.749 z M604.069,63.519 L604.884,63.519 L604.884,64.849 L604.069,64.849 z" fill="#FFFFFF"/>
      <path d="M609.841,66.838 C609.748,66.838 609.673,66.823 609.621,66.823 C608.627,66.823 607.762,67.443 607.503,68.398 C607.4,68.799 607.35,69.186 607.35,70.036 L607.35,72.749 L606.547,72.749 L606.547,66.114 L607.309,66.114 L607.309,67.701 C607.867,66.489 608.493,66.036 609.841,66.01 L609.841,66.838" fill="#FFFFFF"/>
      <path d="M612.927,66.604 C611.478,66.604 610.899,67.728 610.741,68.966 L615.052,68.966 C614.965,67.495 614.165,66.604 612.927,66.604 z M612.965,72.969 C611.114,72.969 609.918,71.612 609.918,69.51 C609.918,67.404 611.169,65.933 612.948,65.933 C614.913,65.933 615.867,67.559 615.867,69.393 L615.867,69.625 L610.741,69.625 C610.741,71.018 611.388,72.309 612.99,72.309 C614.045,72.309 614.76,71.716 615.015,70.567 L615.8,70.567 C615.519,72.038 614.526,72.969 612.965,72.969" fill="#FFFFFF"/>
      <path d="M617,63.559 L617.804,63.559 L617.804,72.749 L617,72.749 z" fill="#FFFFFF"/>
      <path d="M622.013,66.604 C620.563,66.604 619.983,67.728 619.829,68.966 L624.141,68.966 C624.051,67.495 623.252,66.604 622.013,66.604 z M622.05,72.969 C620.205,72.969 619.005,71.612 619.005,69.51 C619.005,67.404 620.256,65.933 622.038,65.933 C623.998,65.933 624.953,67.559 624.953,69.393 L624.953,69.625 L619.829,69.625 C619.829,71.018 620.477,72.309 622.075,72.309 C623.136,72.309 623.845,71.716 624.105,70.567 L624.89,70.567 C624.605,72.038 623.611,72.969 622.05,72.969" fill="#FFFFFF"/>
      <path d="M630.037,68.049 C629.963,67.045 629.315,66.604 628.245,66.604 C627.291,66.604 626.694,67.031 626.694,67.701 C626.694,68.527 627.343,68.669 628.595,68.953 C629.679,69.199 631.061,69.533 631.061,70.914 C631.061,72.128 629.999,72.956 628.426,72.956 C626.721,72.956 625.743,72.104 625.703,70.58 L626.491,70.58 C626.491,71.69 627.223,72.284 628.452,72.284 C629.535,72.284 630.259,71.768 630.259,70.993 C630.259,70.062 629.137,69.857 628.438,69.69 C627.355,69.43 625.881,69.263 625.881,67.804 C625.881,66.643 626.812,65.933 628.325,65.933 C629.781,65.933 630.827,66.63 630.827,68.049 L630.037,68.049" fill="#FFFFFF"/>
      <path d="M636.249,68.049 C636.17,67.045 635.526,66.604 634.455,66.604 C633.498,66.604 632.904,67.031 632.904,67.701 C632.904,68.527 633.548,68.669 634.8,68.953 C635.884,69.199 637.27,69.533 637.27,70.914 C637.27,72.128 636.207,72.956 634.635,72.956 C632.933,72.956 631.949,72.104 631.914,70.58 L632.7,70.58 C632.7,71.69 633.434,72.284 634.659,72.284 C635.743,72.284 636.468,71.768 636.468,70.993 C636.468,70.062 635.347,69.857 634.649,69.69 C633.563,69.43 632.093,69.263 632.093,67.804 C632.093,66.643 633.02,65.933 634.528,65.933 C635.988,65.933 637.036,66.63 637.036,68.049 L636.249,68.049" fill="#FFFFFF"/>
      <path d="M646.046,68.049 C645.969,67.045 645.321,66.604 644.252,66.604 C643.296,66.604 642.702,67.031 642.702,67.701 C642.702,68.527 643.347,68.669 644.595,68.953 C645.684,69.199 647.067,69.533 647.067,70.914 C647.067,72.128 646.005,72.956 644.429,72.956 C642.728,72.956 641.743,72.104 641.708,70.58 L642.494,70.58 C642.494,71.69 643.232,72.284 644.456,72.284 C645.54,72.284 646.266,71.768 646.266,70.993 C646.266,70.062 645.141,69.857 644.445,69.69 C643.362,69.43 641.889,69.263 641.889,67.804 C641.889,66.643 642.816,65.933 644.327,65.933 C645.786,65.933 646.832,66.63 646.832,68.049 L646.046,68.049" fill="#FFFFFF"/>
      <path d="M648.766,69.43 C648.766,71.174 649.656,72.271 651.118,72.271 C652.524,72.271 653.415,71.174 653.415,69.444 C653.415,67.714 652.511,66.604 651.089,66.604 C649.683,66.604 648.766,67.714 648.766,69.43 z M654.229,69.456 C654.229,71.599 653.027,72.943 651.104,72.943 C649.171,72.943 647.943,71.573 647.943,69.43 C647.943,67.302 649.178,65.921 651.104,65.921 C653.013,65.921 654.229,67.288 654.229,69.456" fill="#FFFFFF"/>
      <path d="M655.476,63.559 L656.278,63.559 L656.278,72.749 L655.476,72.749 z" fill="#FFFFFF"/>
      <path d="M663.2,72.749 L662.449,72.749 L662.449,71.523 C661.968,72.451 661.235,72.943 660.114,72.943 C658.731,72.943 657.829,72.141 657.829,70.528 L657.829,66.114 L658.64,66.114 L658.64,70.182 C658.64,71.484 659.04,72.232 660.319,72.232 C661.648,72.232 662.397,71.122 662.397,69.78 L662.397,66.114 L663.2,66.114 L663.2,72.749" fill="#FFFFFF"/>
      <path d="M667.419,66.773 L666.05,66.773 L666.05,70.98 C666.05,71.651 666.025,72.09 666.892,72.09 C667.031,72.09 667.187,72.077 667.419,72.051 L667.419,72.749 C667.12,72.787 666.993,72.797 666.709,72.797 C666.128,72.797 665.485,72.683 665.327,72.038 C665.268,71.768 665.252,71.573 665.252,70.58 L665.252,66.773 L664.077,66.773 L664.077,66.114 L665.252,66.114 L665.252,64.088 L666.05,64.088 L666.05,66.114 L667.419,66.114 L667.419,66.773" fill="#FFFFFF"/>
      <path d="M668.608,66.114 L669.421,66.114 L669.421,72.749 L668.608,72.749 z M668.608,63.519 L669.421,63.519 L669.421,64.849 L668.608,64.849 z" fill="#FFFFFF"/>
      <path d="M671.47,69.43 C671.47,71.174 672.364,72.271 673.819,72.271 C675.224,72.271 676.117,71.174 676.117,69.444 C676.117,67.714 675.214,66.604 673.793,66.604 C672.39,66.604 671.47,67.714 671.47,69.43 z M676.928,69.456 C676.928,71.599 675.731,72.943 673.806,72.943 C671.873,72.943 670.644,71.573 670.644,69.43 C670.644,67.302 671.882,65.921 673.806,65.921 C675.715,65.921 676.928,67.288 676.928,69.456" fill="#FFFFFF"/>
      <path d="M678.919,67.364 C679.448,66.424 680.119,65.933 681.265,65.933 C682.559,65.933 683.566,66.604 683.566,68.231 L683.566,72.749 L682.752,72.749 L682.752,68.488 C682.752,67.119 682.065,66.643 681.064,66.643 C679.849,66.643 678.968,67.443 678.968,69.161 L678.968,72.749 L678.155,72.749 L678.155,66.114 L678.919,66.114 L678.919,67.364" fill="#FFFFFF"/>
      <path d="M689.064,68.049 C688.987,67.045 688.339,66.604 687.268,66.604 C686.316,66.604 685.721,67.031 685.721,67.701 C685.721,68.527 686.368,68.669 687.618,68.953 C688.701,69.199 690.084,69.533 690.084,70.914 C690.084,72.128 689.025,72.956 687.452,72.956 C685.747,72.956 684.765,72.104 684.727,70.58 L685.515,70.58 C685.515,71.69 686.251,72.284 687.475,72.284 C688.563,72.284 689.282,71.768 689.282,70.993 C689.282,70.062 688.16,69.857 687.464,69.69 C686.376,69.43 684.907,69.263 684.907,67.804 C684.907,66.643 685.839,65.933 687.348,65.933 C688.806,65.933 689.85,66.63 689.85,68.049 L689.064,68.049" fill="#FFFFFF"/>
      <path d="M594.778,76.939 C594.503,76.901 594.415,76.901 594.235,76.901 C593.268,76.901 593.28,77.391 593.28,78.167 L593.28,78.824 L594.609,78.824 L594.609,79.481 L593.28,79.481 L593.28,85.459 L592.466,85.459 L592.466,79.481 L591.33,79.481 L591.33,78.824 L592.466,78.824 L592.466,78.064 C592.466,76.85 592.881,76.205 594.157,76.205 C594.393,76.205 594.493,76.217 594.778,76.256 L594.778,76.939" fill="#FFFFFF"/>
      <path d="M595.875,82.14 C595.875,83.885 596.762,84.981 598.223,84.981 C599.63,84.981 600.52,83.885 600.52,82.153 C600.52,80.424 599.615,79.315 598.198,79.315 C596.792,79.315 595.875,80.424 595.875,82.14 z M601.334,82.167 C601.334,84.309 600.134,85.651 598.212,85.651 C596.277,85.651 595.05,84.283 595.05,82.14 C595.05,80.012 596.288,78.63 598.212,78.63 C600.12,78.63 601.334,79.999 601.334,82.167" fill="#FFFFFF"/>
      <path d="M605.951,79.546 C605.864,79.546 605.784,79.535 605.734,79.535 C604.741,79.535 603.878,80.155 603.617,81.108 C603.515,81.509 603.463,81.895 603.463,82.747 L603.463,85.459 L602.665,85.459 L602.665,78.824 L603.426,78.824 L603.426,80.412 C603.979,79.197 604.611,78.747 605.951,78.72 L605.951,79.546" fill="#FFFFFF"/>
      <path d="M619.29,85.459 L618.451,85.459 L618.451,79.909 C618.451,78.94 618.487,77.987 618.552,77.017 C618.371,77.572 618.165,78.141 617.944,78.682 L615.234,85.459 L614.447,85.459 L611.696,78.76 C611.466,78.205 611.27,77.637 611.09,77.07 C611.157,78.01 611.197,78.94 611.197,79.883 L611.197,85.459 L610.356,85.459 L610.356,76.269 L611.544,76.269 L614.212,82.826 C614.447,83.394 614.64,83.973 614.848,84.556 C615.052,83.987 615.234,83.406 615.454,82.851 L618.089,76.269 L619.29,76.269 L619.29,85.459" fill="#FFFFFF"/>
      <path d="M626.607,85.459 L620.655,85.459 C620.77,83.495 622.025,82.723 623.496,81.754 C624.516,81.082 625.743,80.32 625.743,78.94 C625.743,77.818 624.942,77.082 623.74,77.082 C622.178,77.082 621.674,78.219 621.674,79.561 L620.88,79.561 L620.88,79.445 C620.88,77.533 621.97,76.372 623.78,76.372 C625.47,76.372 626.565,77.379 626.565,78.928 C626.565,80.721 624.966,81.689 623.638,82.541 C622.773,83.098 621.751,83.704 621.572,84.749 C621.663,84.749 621.743,84.735 621.792,84.735 L626.607,84.735 L626.607,85.459" fill="#FFFFFF"/>
      <path d="M637.218,85.459 L636.376,85.459 L636.376,79.909 C636.376,78.94 636.414,77.987 636.482,77.017 C636.3,77.572 636.094,78.141 635.876,78.682 L633.163,85.459 L632.373,85.459 L629.627,78.76 C629.393,78.205 629.203,77.637 629.019,77.07 C629.085,78.01 629.126,78.94 629.126,79.883 L629.126,85.459 L628.283,85.459 L628.283,76.269 L629.469,76.269 L632.147,82.826 C632.373,83.394 632.571,83.973 632.776,84.556 C632.983,83.987 633.163,83.406 633.383,82.851 L636.014,76.269 L637.218,76.269 L637.218,85.459" fill="#FFFFFF"/>
      <path d="M649.013,85.459 L648.136,85.459 L646.819,81.097 C646.718,80.736 646.64,80.451 646.484,79.792 C646.315,80.489 646.239,80.771 646.149,81.097 L644.858,85.459 L643.955,85.459 L641.8,78.824 L642.674,78.824 L643.937,82.864 C644.082,83.304 644.174,83.678 644.406,84.58 C644.663,83.535 644.545,83.859 644.843,82.837 L646.031,78.824 L646.963,78.824 L648.222,83.031 C648.331,83.38 648.408,83.718 648.599,84.58 C648.78,83.808 648.871,83.484 649,83.057 L650.334,78.824 L651.168,78.824 L649.013,85.459" fill="#FFFFFF"/>
      <path d="M652.539,82.14 C652.539,83.885 653.428,84.981 654.887,84.981 C656.295,84.981 657.182,83.885 657.182,82.153 C657.182,80.424 656.281,79.315 654.86,79.315 C653.456,79.315 652.539,80.424 652.539,82.14 z M657.997,82.167 C657.997,84.309 656.797,85.651 654.872,85.651 C652.936,85.651 651.713,84.283 651.713,82.14 C651.713,80.012 652.947,78.63 654.872,78.63 C656.783,78.63 657.997,79.999 657.997,82.167" fill="#FFFFFF"/>
      <path d="M662.619,79.546 C662.527,79.546 662.449,79.535 662.397,79.535 C661.402,79.535 660.538,80.155 660.281,81.108 C660.178,81.509 660.128,81.895 660.128,82.747 L660.128,85.459 L659.326,85.459 L659.326,78.824 L660.086,78.824 L660.086,80.412 C660.643,79.197 661.274,78.747 662.619,78.72 L662.619,79.546" fill="#FFFFFF"/>
      <path d="M663.315,76.269 L664.118,76.269 L664.118,85.459 L663.315,85.459 z" fill="#FFFFFF"/>
      <path d="M671.509,76.269 L671.509,85.459 L670.776,85.459 L670.776,84.156 C670.376,85.162 669.472,85.651 668.386,85.651 C666.554,85.651 665.393,84.296 665.393,82.14 C665.393,80.012 666.554,78.63 668.362,78.63 C669.421,78.63 670.3,79.095 670.722,80.064 L670.722,76.269 z M668.451,79.301 C667.896,79.306 667.364,79.497 666.969,79.897 C666.393,80.479 666.205,81.337 666.205,82.129 C666.205,82.236 666.204,82.344 666.215,82.451 C666.286,83.173 666.444,83.861 666.972,84.396 C667.646,85.08 668.809,85.187 669.623,84.689 C669.891,84.525 670.109,84.3 670.278,84.036 C670.641,83.465 670.728,82.801 670.748,82.14 C670.748,80.708 670.079,79.301 668.451,79.301 z z" fill="#FFFFFF"/>
      <path d="M601.174,14.688 L601.174,25.972 C605.694,25.946 609.356,23.435 609.356,20.331 C609.356,17.23 605.694,14.713 601.174,14.688" fill="#FFFFFF"/>
      <path d="M627.649,23.975 C626.534,23.165 624.799,22.764 622.437,22.764 L617.853,22.764 L617.853,32.588 L622.172,32.588 C623.53,32.588 624.516,32.523 625.125,32.396 C627.917,31.783 629.314,30.167 629.314,27.542 C629.314,25.974 628.76,24.786 627.649,23.975" fill="#FFFFFF"/>
      <path d="M687.193,26.525 L664.68,46.182 L687.147,46.182 L687.147,58.431 L649.771,58.431 C649.771,57.539 649.771,49.741 649.771,45.156 C649.771,43.447 649.222,42.171 648.508,41.234 L668.001,24.36 L649.084,24.36 L649.084,23.773 C649.084,18.442 646.111,13.948 642.055,12.571 L687.193,12.571 L687.193,26.525 z M630.168,58.404 L629.81,46.937 C629.731,44.315 624.814,42.418 622.565,42.418 L618.642,42.418 L618.642,58.404 L601.083,58.404 L601.083,56.145 L609.356,56.145 L609.356,28.378 L601.174,28.378 L601.174,55.921 L593.136,55.921 L593.136,28.154 L601.083,28.154 L601.083,26.075 C596.438,26.04 592.684,23.492 592.684,20.35 C592.684,17.208 596.438,14.661 601.083,14.628 L601.083,12.543 L628.528,12.543 C633.509,12.543 637.397,13.133 640.194,14.312 C644.736,16.233 647.001,19.724 647.001,24.793 C647.001,28.027 645.955,30.714 643.858,32.852 C641.939,34.817 639.406,36.059 636.261,36.584 C639.685,37.253 647.09,39.522 647.221,45.1 L647.542,58.404 L630.168,58.404 z M689.555,10.349 L601.174,10.349 L601.174,12.487 C600.974,12.493 600.757,12.499 600.535,12.487 C600.258,12.497 599.98,12.513 599.711,12.536 C594.387,12.74 590.147,16.156 590.147,20.34 C590.147,21.462 590.452,22.526 590.998,23.49 L590.998,58.225 L599.038,58.225 L599.038,60.486 L689.555,60.486 L689.555,44.001 L671.067,44.001 L689.555,27.289 L689.555,10.349" fill="#FFFFFF"/>
    </g>
    <path d="M19.918,23.653 L20.974,23.653 L20.974,33.517 L31.75,23.653 L33.118,23.653 L25.294,30.781 L33.598,40.789 L32.278,40.789 L24.526,31.501 L20.974,34.741 L20.974,40.789 L19.918,40.789 z" fill="#000000"/>
    <path d="M42.646,38.341 L42.598,38.341 Q42.382,38.893 41.974,39.385 Q41.566,39.877 40.978,40.261 Q40.39,40.645 39.646,40.861 Q38.902,41.077 38.014,41.077 Q36.046,41.077 34.966,40.225 Q33.886,39.373 33.886,37.597 Q33.886,36.517 34.318,35.833 Q34.75,35.149 35.41,34.753 Q36.07,34.357 36.874,34.189 Q37.678,34.021 38.422,33.949 L39.838,33.829 Q40.822,33.757 41.386,33.601 Q41.95,33.445 42.238,33.169 Q42.526,32.893 42.598,32.461 Q42.67,32.029 42.67,31.381 Q42.67,30.877 42.478,30.445 Q42.286,30.013 41.878,29.677 Q41.47,29.341 40.822,29.149 Q40.174,28.957 39.238,28.957 Q37.582,28.957 36.562,29.773 Q35.542,30.589 35.446,32.245 L34.534,32.245 Q34.63,30.205 35.842,29.185 Q37.054,28.165 39.286,28.165 Q41.518,28.165 42.538,29.041 Q43.558,29.917 43.558,31.333 L43.558,38.509 Q43.558,38.773 43.57,39.037 Q43.582,39.301 43.654,39.517 Q43.726,39.733 43.894,39.865 Q44.062,39.997 44.374,39.997 Q44.614,39.997 45.046,39.925 L45.046,40.693 Q44.686,40.789 44.302,40.789 Q43.75,40.789 43.426,40.645 Q43.102,40.501 42.934,40.261 Q42.766,40.021 42.706,39.697 Q42.646,39.373 42.646,38.989 z M42.646,33.781 Q42.31,34.189 41.626,34.333 Q40.942,34.477 40.102,34.549 L38.566,34.693 Q37.894,34.765 37.222,34.897 Q36.55,35.029 36.01,35.341 Q35.47,35.653 35.134,36.193 Q34.798,36.733 34.798,37.597 Q34.798,38.965 35.662,39.625 Q36.526,40.285 38.038,40.285 Q39.598,40.285 40.51,39.721 Q41.422,39.157 41.902,38.425 Q42.382,37.693 42.514,37.009 Q42.646,36.325 42.646,36.085 z" fill="#000000"/>
    <path d="M46.51,28.453 L47.422,28.453 L47.422,35.197 L55.03,28.453 L56.35,28.453 L50.95,33.253 L56.734,40.789 L55.486,40.789 L50.23,33.949 L47.422,36.325 L47.422,40.789 L46.51,40.789 z" fill="#000000"/>
    <path d="M65.158,29.245 L65.158,40.789 L64.246,40.789 L64.246,28.453 L74.014,28.453 L74.014,40.789 L73.102,40.789 L73.102,29.245 z" fill="#000000"/>
    <path d="M77.83,31.285 L77.878,31.285 Q78.022,30.829 78.358,30.277 Q78.694,29.725 79.246,29.257 Q79.798,28.789 80.578,28.477 Q81.358,28.165 82.366,28.165 Q83.782,28.165 84.826,28.693 Q85.87,29.221 86.554,30.109 Q87.238,30.997 87.574,32.173 Q87.91,33.349 87.91,34.645 Q87.91,36.061 87.574,37.237 Q87.238,38.413 86.554,39.265 Q85.87,40.117 84.826,40.597 Q83.782,41.077 82.366,41.077 Q80.83,41.077 79.63,40.405 Q78.43,39.733 77.878,38.221 L77.83,38.221 L77.83,45.205 L76.918,45.205 L76.918,28.453 L77.83,28.453 z M82.366,40.285 Q83.566,40.285 84.442,39.829 Q85.318,39.373 85.882,38.605 Q86.446,37.837 86.722,36.817 Q86.998,35.797 86.998,34.645 Q86.998,33.589 86.734,32.569 Q86.47,31.549 85.918,30.745 Q85.366,29.941 84.49,29.449 Q83.614,28.957 82.366,28.957 Q81.142,28.957 80.278,29.437 Q79.414,29.917 78.874,30.709 Q78.334,31.501 78.094,32.521 Q77.854,33.541 77.854,34.645 Q77.854,35.749 78.07,36.769 Q78.286,37.789 78.802,38.569 Q79.318,39.349 80.194,39.817 Q81.07,40.285 82.366,40.285 z" fill="#000000"/>
    <path d="M98.23,38.341 L98.182,38.341 Q97.966,38.893 97.558,39.385 Q97.15,39.877 96.562,40.261 Q95.974,40.645 95.23,40.861 Q94.486,41.077 93.598,41.077 Q91.63,41.077 90.55,40.225 Q89.47,39.373 89.47,37.597 Q89.47,36.517 89.902,35.833 Q90.334,35.149 90.994,34.753 Q91.654,34.357 92.458,34.189 Q93.262,34.021 94.006,33.949 L95.422,33.829 Q96.406,33.757 96.97,33.601 Q97.534,33.445 97.822,33.169 Q98.11,32.893 98.182,32.461 Q98.254,32.029 98.254,31.381 Q98.254,30.877 98.062,30.445 Q97.87,30.013 97.462,29.677 Q97.054,29.341 96.406,29.149 Q95.758,28.957 94.822,28.957 Q93.166,28.957 92.146,29.773 Q91.126,30.589 91.03,32.245 L90.118,32.245 Q90.214,30.205 91.426,29.185 Q92.638,28.165 94.87,28.165 Q97.102,28.165 98.122,29.041 Q99.142,29.917 99.142,31.333 L99.142,38.509 Q99.142,38.773 99.154,39.037 Q99.166,39.301 99.238,39.517 Q99.31,39.733 99.478,39.865 Q99.646,39.997 99.958,39.997 Q100.198,39.997 100.63,39.925 L100.63,40.693 Q100.27,40.789 99.886,40.789 Q99.334,40.789 99.01,40.645 Q98.686,40.501 98.518,40.261 Q98.35,40.021 98.29,39.697 Q98.23,39.373 98.23,38.989 z M98.23,33.781 Q97.894,34.189 97.21,34.333 Q96.526,34.477 95.686,34.549 L94.15,34.693 Q93.478,34.765 92.806,34.897 Q92.134,35.029 91.594,35.341 Q91.054,35.653 90.718,36.193 Q90.382,36.733 90.382,37.597 Q90.382,38.965 91.246,39.625 Q92.11,40.285 93.622,40.285 Q95.182,40.285 96.094,39.721 Q97.006,39.157 97.486,38.425 Q97.966,37.693 98.098,37.009 Q98.23,36.325 98.23,36.085 z" fill="#000000"/>
    <path d="M102.07,40.789 L102.07,28.453 L107.734,28.453 Q109.558,28.453 110.518,29.257 Q111.478,30.061 111.478,31.477 Q111.478,32.629 110.854,33.301 Q110.23,33.973 109.198,34.189 L109.198,34.237 Q110.47,34.477 111.202,35.233 Q111.934,35.989 111.934,37.357 Q111.934,39.013 110.794,39.901 Q109.654,40.789 107.614,40.789 z M102.982,29.245 L102.982,33.877 L107.638,33.877 Q109.006,33.877 109.786,33.277 Q110.566,32.677 110.566,31.597 Q110.566,30.445 109.81,29.845 Q109.054,29.245 107.662,29.245 z M107.59,39.997 Q109.246,39.997 110.134,39.313 Q111.022,38.629 111.022,37.333 Q111.022,36.109 110.182,35.389 Q109.342,34.669 107.686,34.669 L102.982,34.669 L102.982,39.997 z" fill="#000000"/>
    <path d="M122.902,29.701 L122.878,29.701 L115.174,40.789 L114.046,40.789 L114.046,28.453 L114.958,28.453 L114.958,39.589 L114.982,39.589 L122.662,28.453 L123.814,28.453 L123.814,40.789 L122.902,40.789 z" fill="#000000"/>
    <path d="M136.39,28.453 L136.39,40.789 L135.478,40.789 L135.478,29.245 L129.718,29.245 L129.454,36.205 Q129.406,37.597 129.178,38.521 Q128.95,39.445 128.566,40.009 Q128.182,40.573 127.666,40.801 Q127.15,41.029 126.502,41.029 Q125.806,41.029 125.206,40.765 L125.206,39.877 Q125.542,40.045 125.83,40.105 Q126.118,40.165 126.454,40.165 Q126.934,40.165 127.306,39.961 Q127.678,39.757 127.942,39.289 Q128.206,38.821 128.35,38.053 Q128.494,37.285 128.542,36.133 L128.83,28.453 z" fill="#000000"/>
    <path d="M139.078,28.453 L139.99,28.453 L139.99,33.613 L144.958,33.613 Q146.758,33.613 147.766,34.561 Q148.774,35.509 148.774,37.165 Q148.774,38.869 147.742,39.829 Q146.71,40.789 144.91,40.789 L139.078,40.789 z M147.862,37.165 Q147.862,35.917 147.07,35.161 Q146.278,34.405 144.814,34.405 L139.99,34.405 L139.99,39.997 L144.79,39.997 Q146.278,39.997 147.07,39.253 Q147.862,38.509 147.862,37.165 z" fill="#000000"/>
    <path d="M159.646,34.621 L151.702,34.621 L151.702,40.789 L150.79,40.789 L150.79,28.453 L151.702,28.453 L151.702,33.829 L159.646,33.829 L159.646,28.453 L160.558,28.453 L160.558,40.789 L159.646,40.789 z" fill="#000000"/>
    <path d="M162.67,34.621 Q162.67,33.301 163.042,32.137 Q163.414,30.973 164.134,30.085 Q164.854,29.197 165.91,28.681 Q166.966,28.165 168.334,28.165 Q169.702,28.165 170.758,28.681 Q171.814,29.197 172.534,30.085 Q173.254,30.973 173.626,32.137 Q173.998,33.301 173.998,34.621 Q173.998,35.941 173.626,37.117 Q173.254,38.293 172.534,39.169 Q171.814,40.045 170.758,40.561 Q169.702,41.077 168.334,41.077 Q166.966,41.077 165.91,40.561 Q164.854,40.045 164.134,39.169 Q163.414,38.293 163.042,37.117 Q162.67,35.941 162.67,34.621 z M163.582,34.621 Q163.582,35.725 163.894,36.745 Q164.206,37.765 164.806,38.557 Q165.406,39.349 166.294,39.817 Q167.182,40.285 168.334,40.285 Q169.486,40.285 170.374,39.817 Q171.262,39.349 171.862,38.557 Q172.462,37.765 172.774,36.745 Q173.086,35.725 173.086,34.621 Q173.086,33.517 172.774,32.497 Q172.462,31.477 171.862,30.685 Q171.262,29.893 170.374,29.425 Q169.486,28.957 168.334,28.957 Q167.182,28.957 166.294,29.425 Q165.406,29.893 164.806,30.685 Q164.206,31.477 163.894,32.497 Q163.582,33.517 163.582,34.621 z" fill="#000000"/>
    <path d="M182.83,40.789 L182.83,28.453 L188.494,28.453 Q190.318,28.453 191.278,29.257 Q192.238,30.061 192.238,31.477 Q192.238,32.629 191.614,33.301 Q190.99,33.973 189.958,34.189 L189.958,34.237 Q191.23,34.477 191.962,35.233 Q192.694,35.989 192.694,37.357 Q192.694,39.013 191.554,39.901 Q190.414,40.789 188.374,40.789 z M183.742,29.245 L183.742,33.877 L188.398,33.877 Q189.766,33.877 190.546,33.277 Q191.326,32.677 191.326,31.597 Q191.326,30.445 190.57,29.845 Q189.814,29.245 188.422,29.245 z M188.35,39.997 Q190.006,39.997 190.894,39.313 Q191.782,38.629 191.782,37.333 Q191.782,36.109 190.942,35.389 Q190.102,34.669 188.446,34.669 L183.742,34.669 L183.742,39.997 z" fill="#000000"/>
    <path d="M206.326,28.453 L207.238,28.453 L207.238,40.789 L206.326,40.789 z M194.806,28.453 L195.718,28.453 L195.718,33.613 L200.446,33.613 Q202.246,33.613 203.254,34.561 Q204.262,35.509 204.262,37.165 Q204.262,38.869 203.23,39.829 Q202.198,40.789 200.398,40.789 L194.806,40.789 z M203.35,37.165 Q203.35,35.917 202.558,35.161 Q201.766,34.405 200.302,34.405 L195.718,34.405 L195.718,39.997 L200.278,39.997 Q201.766,39.997 202.558,39.253 Q203.35,38.509 203.35,37.165 z" fill="#000000"/>
    <path d="M220.678,34.765 Q220.678,36.181 220.27,37.345 Q219.862,38.509 219.13,39.337 Q218.398,40.165 217.378,40.621 Q216.358,41.077 215.11,41.077 Q213.814,41.077 212.782,40.585 Q211.75,40.093 211.042,39.205 Q210.334,38.317 209.95,37.069 Q209.566,35.821 209.566,34.285 Q209.566,32.005 209.866,30.313 Q210.166,28.621 210.838,27.469 Q211.51,26.317 212.554,25.669 Q213.598,25.021 215.086,24.829 L217.102,24.565 Q218.086,24.445 218.458,24.241 Q218.83,24.037 218.95,23.653 L220.006,23.653 Q219.91,24.061 219.754,24.373 Q219.598,24.685 219.286,24.901 Q218.974,25.117 218.494,25.249 Q218.014,25.381 217.294,25.477 L215.302,25.717 Q214.15,25.861 213.334,26.269 Q212.518,26.677 211.942,27.421 Q211.366,28.165 211.006,29.269 Q210.646,30.373 210.43,31.909 L210.478,31.909 Q211.198,30.157 212.494,29.389 Q213.79,28.621 215.278,28.621 Q216.454,28.621 217.45,29.053 Q218.446,29.485 219.166,30.289 Q219.886,31.093 220.282,32.233 Q220.678,33.373 220.678,34.765 z M219.766,34.765 Q219.766,33.541 219.43,32.557 Q219.094,31.573 218.482,30.877 Q217.87,30.181 217.03,29.797 Q216.19,29.413 215.206,29.413 Q214.222,29.413 213.358,29.785 Q212.494,30.157 211.858,30.841 Q211.222,31.525 210.85,32.497 Q210.478,33.469 210.478,34.669 Q210.478,35.893 210.826,36.925 Q211.174,37.957 211.786,38.701 Q212.398,39.445 213.262,39.865 Q214.126,40.285 215.158,40.285 Q216.166,40.285 217.006,39.901 Q217.846,39.517 218.458,38.797 Q219.07,38.077 219.418,37.057 Q219.766,36.037 219.766,34.765 z" fill="#000000"/>
    <path d="M223.942,31.285 L223.99,31.285 Q224.134,30.829 224.47,30.277 Q224.806,29.725 225.358,29.257 Q225.91,28.789 226.69,28.477 Q227.47,28.165 228.478,28.165 Q229.894,28.165 230.938,28.693 Q231.982,29.221 232.666,30.109 Q233.35,30.997 233.686,32.173 Q234.022,33.349 234.022,34.645 Q234.022,36.061 233.686,37.237 Q233.35,38.413 232.666,39.265 Q231.982,40.117 230.938,40.597 Q229.894,41.077 228.478,41.077 Q226.942,41.077 225.742,40.405 Q224.542,39.733 223.99,38.221 L223.942,38.221 L223.942,45.205 L223.03,45.205 L223.03,28.453 L223.942,28.453 z M228.478,40.285 Q229.678,40.285 230.554,39.829 Q231.43,39.373 231.994,38.605 Q232.558,37.837 232.834,36.817 Q233.11,35.797 233.11,34.645 Q233.11,33.589 232.846,32.569 Q232.582,31.549 232.03,30.745 Q231.478,29.941 230.602,29.449 Q229.726,28.957 228.478,28.957 Q227.254,28.957 226.39,29.437 Q225.526,29.917 224.986,30.709 Q224.446,31.501 224.206,32.521 Q223.966,33.541 223.966,34.645 Q223.966,35.749 224.182,36.769 Q224.398,37.789 224.914,38.569 Q225.43,39.349 226.306,39.817 Q227.182,40.285 228.478,40.285 z" fill="#000000"/>
    <path d="M244.342,38.341 L244.294,38.341 Q244.078,38.893 243.67,39.385 Q243.262,39.877 242.674,40.261 Q242.086,40.645 241.342,40.861 Q240.598,41.077 239.71,41.077 Q237.742,41.077 236.662,40.225 Q235.582,39.373 235.582,37.597 Q235.582,36.517 236.014,35.833 Q236.446,35.149 237.106,34.753 Q237.766,34.357 238.57,34.189 Q239.374,34.021 240.118,33.949 L241.534,33.829 Q242.518,33.757 243.082,33.601 Q243.646,33.445 243.934,33.169 Q244.222,32.893 244.294,32.461 Q244.366,32.029 244.366,31.381 Q244.366,30.877 244.174,30.445 Q243.982,30.013 243.574,29.677 Q243.166,29.341 242.518,29.149 Q241.87,28.957 240.934,28.957 Q239.278,28.957 238.258,29.773 Q237.238,30.589 237.142,32.245 L236.23,32.245 Q236.326,30.205 237.538,29.185 Q238.75,28.165 240.982,28.165 Q243.214,28.165 244.234,29.041 Q245.254,29.917 245.254,31.333 L245.254,38.509 Q245.254,38.773 245.266,39.037 Q245.278,39.301 245.35,39.517 Q245.422,39.733 245.59,39.865 Q245.758,39.997 246.07,39.997 Q246.31,39.997 246.742,39.925 L246.742,40.693 Q246.382,40.789 245.998,40.789 Q245.446,40.789 245.122,40.645 Q244.798,40.501 244.63,40.261 Q244.462,40.021 244.402,39.697 Q244.342,39.373 244.342,38.989 z M244.342,33.781 Q244.006,34.189 243.322,34.333 Q242.638,34.477 241.798,34.549 L240.262,34.693 Q239.59,34.765 238.918,34.897 Q238.246,35.029 237.706,35.341 Q237.166,35.653 236.83,36.193 Q236.494,36.733 236.494,37.597 Q236.494,38.965 237.358,39.625 Q238.222,40.285 239.734,40.285 Q241.294,40.285 242.206,39.721 Q243.118,39.157 243.598,38.425 Q244.078,37.693 244.21,37.009 Q244.342,36.325 244.342,36.085 z" fill="#000000"/>
    <path d="M252.598,40.789 L251.686,40.789 L251.686,29.245 L247.006,29.245 L247.006,28.453 L257.278,28.453 L257.278,29.245 L252.598,29.245 z" fill="#000000"/>
    <path d="M258.814,28.453 L259.726,28.453 L259.726,33.613 L264.694,33.613 Q266.494,33.613 267.502,34.561 Q268.51,35.509 268.51,37.165 Q268.51,38.869 267.478,39.829 Q266.446,40.789 264.646,40.789 L258.814,40.789 z M267.598,37.165 Q267.598,35.917 266.806,35.161 Q266.014,34.405 264.55,34.405 L259.726,34.405 L259.726,39.997 L264.526,39.997 Q266.014,39.997 266.806,39.253 Q267.598,38.509 267.598,37.165 z" fill="#000000"/>
    <path d="M28.606,58.701 L28.582,58.701 L20.878,69.789 L19.75,69.789 L19.75,57.453 L20.662,57.453 L20.662,68.589 L20.686,68.589 L28.366,57.453 L29.518,57.453 L29.518,69.789 L28.606,69.789 z" fill="#000000"/>
    <path d="M47.734,63.621 L39.79,63.621 L39.79,69.789 L38.878,69.789 L38.878,57.453 L39.79,57.453 L39.79,62.829 L47.734,62.829 L47.734,57.453 L48.646,57.453 L48.646,69.789 L47.734,69.789 z" fill="#000000"/>
    <path d="M59.518,67.341 L59.47,67.341 Q59.254,67.893 58.846,68.385 Q58.438,68.877 57.85,69.261 Q57.262,69.645 56.518,69.861 Q55.774,70.077 54.886,70.077 Q52.918,70.077 51.838,69.225 Q50.758,68.373 50.758,66.597 Q50.758,65.517 51.19,64.833 Q51.622,64.149 52.282,63.753 Q52.942,63.357 53.746,63.189 Q54.55,63.021 55.294,62.949 L56.71,62.829 Q57.694,62.757 58.258,62.601 Q58.822,62.445 59.11,62.169 Q59.398,61.893 59.47,61.461 Q59.542,61.029 59.542,60.381 Q59.542,59.877 59.35,59.445 Q59.158,59.013 58.75,58.677 Q58.342,58.341 57.694,58.149 Q57.046,57.957 56.11,57.957 Q54.454,57.957 53.434,58.773 Q52.414,59.589 52.318,61.245 L51.406,61.245 Q51.502,59.205 52.714,58.185 Q53.926,57.165 56.158,57.165 Q58.39,57.165 59.41,58.041 Q60.43,58.917 60.43,60.333 L60.43,67.509 Q60.43,67.773 60.442,68.037 Q60.454,68.301 60.526,68.517 Q60.598,68.733 60.766,68.865 Q60.934,68.997 61.246,68.997 Q61.486,68.997 61.918,68.925 L61.918,69.693 Q61.558,69.789 61.174,69.789 Q60.622,69.789 60.298,69.645 Q59.974,69.501 59.806,69.261 Q59.638,69.021 59.578,68.697 Q59.518,68.373 59.518,67.989 z M59.518,62.781 Q59.182,63.189 58.498,63.333 Q57.814,63.477 56.974,63.549 L55.438,63.693 Q54.766,63.765 54.094,63.897 Q53.422,64.029 52.882,64.341 Q52.342,64.653 52.006,65.193 Q51.67,65.733 51.67,66.597 Q51.67,67.965 52.534,68.625 Q53.398,69.285 54.91,69.285 Q56.47,69.285 57.382,68.721 Q58.294,68.157 58.774,67.425 Q59.254,66.693 59.386,66.009 Q59.518,65.325 59.518,65.085 z" fill="#000000"/>
    <path d="M72.622,61.269 Q72.55,60.453 72.202,59.829 Q71.854,59.205 71.302,58.797 Q70.75,58.389 70.018,58.173 Q69.286,57.957 68.446,57.957 Q67.294,57.957 66.406,58.425 Q65.518,58.893 64.918,59.673 Q64.318,60.453 64.006,61.449 Q63.694,62.445 63.694,63.501 Q63.694,64.749 63.982,65.805 Q64.27,66.861 64.87,67.641 Q65.47,68.421 66.358,68.853 Q67.246,69.285 68.446,69.285 Q69.31,69.285 70.042,68.997 Q70.774,68.709 71.338,68.205 Q71.902,67.701 72.262,66.993 Q72.622,66.285 72.742,65.445 L73.654,65.445 Q73.51,66.549 73.054,67.413 Q72.598,68.277 71.902,68.865 Q71.206,69.453 70.318,69.765 Q69.43,70.077 68.446,70.077 Q66.934,70.077 65.866,69.537 Q64.798,68.997 64.114,68.085 Q63.43,67.173 63.106,65.985 Q62.782,64.797 62.782,63.501 Q62.782,62.205 63.154,61.053 Q63.526,59.901 64.246,59.037 Q64.966,58.173 66.022,57.669 Q67.078,57.165 68.446,57.165 Q69.454,57.165 70.33,57.417 Q71.206,57.669 71.89,58.173 Q72.574,58.677 73.006,59.457 Q73.438,60.237 73.534,61.269 z" fill="#000000"/>
    <path d="M79.798,69.789 L78.886,69.789 L78.886,58.245 L74.206,58.245 L74.206,57.453 L84.478,57.453 L84.478,58.245 L79.798,58.245 z" fill="#000000"/>
    <path d="M87.142,60.285 L87.19,60.285 Q87.334,59.829 87.67,59.277 Q88.006,58.725 88.558,58.257 Q89.11,57.789 89.89,57.477 Q90.67,57.165 91.678,57.165 Q93.094,57.165 94.138,57.693 Q95.182,58.221 95.866,59.109 Q96.55,59.997 96.886,61.173 Q97.222,62.349 97.222,63.645 Q97.222,65.061 96.886,66.237 Q96.55,67.413 95.866,68.265 Q95.182,69.117 94.138,69.597 Q93.094,70.077 91.678,70.077 Q90.142,70.077 88.942,69.405 Q87.742,68.733 87.19,67.221 L87.142,67.221 L87.142,74.205 L86.23,74.205 L86.23,57.453 L87.142,57.453 z M91.678,69.285 Q92.878,69.285 93.754,68.829 Q94.63,68.373 95.194,67.605 Q95.758,66.837 96.034,65.817 Q96.31,64.797 96.31,63.645 Q96.31,62.589 96.046,61.569 Q95.782,60.549 95.23,59.745 Q94.678,58.941 93.802,58.449 Q92.926,57.957 91.678,57.957 Q90.454,57.957 89.59,58.437 Q88.726,58.917 88.186,59.709 Q87.646,60.501 87.406,61.521 Q87.166,62.541 87.166,63.645 Q87.166,64.749 87.382,65.769 Q87.598,66.789 88.114,67.569 Q88.63,68.349 89.506,68.817 Q90.382,69.285 91.678,69.285 z" fill="#000000"/>
    <path d="M98.782,63.621 Q98.782,62.301 99.154,61.137 Q99.526,59.973 100.246,59.085 Q100.966,58.197 102.022,57.681 Q103.078,57.165 104.446,57.165 Q105.814,57.165 106.87,57.681 Q107.926,58.197 108.646,59.085 Q109.366,59.973 109.738,61.137 Q110.11,62.301 110.11,63.621 Q110.11,64.941 109.738,66.117 Q109.366,67.293 108.646,68.169 Q107.926,69.045 106.87,69.561 Q105.814,70.077 104.446,70.077 Q103.078,70.077 102.022,69.561 Q100.966,69.045 100.246,68.169 Q99.526,67.293 99.154,66.117 Q98.782,64.941 98.782,63.621 z M99.694,63.621 Q99.694,64.725 100.006,65.745 Q100.318,66.765 100.918,67.557 Q101.518,68.349 102.406,68.817 Q103.294,69.285 104.446,69.285 Q105.598,69.285 106.486,68.817 Q107.374,68.349 107.974,67.557 Q108.574,66.765 108.886,65.745 Q109.198,64.725 109.198,63.621 Q109.198,62.517 108.886,61.497 Q108.574,60.477 107.974,59.685 Q107.374,58.893 106.486,58.425 Q105.598,57.957 104.446,57.957 Q103.294,57.957 102.406,58.425 Q101.518,58.893 100.918,59.685 Q100.318,60.477 100.006,61.497 Q99.694,62.517 99.694,63.621 z" fill="#000000"/>
    <path d="M121.102,58.701 L121.078,58.701 L113.374,69.789 L112.246,69.789 L112.246,57.453 L113.158,57.453 L113.158,68.589 L113.182,68.589 L120.862,57.453 L122.014,57.453 L122.014,69.789 L121.102,69.789 z" fill="#000000"/>
    <path d="M129.142,69.789 L128.23,69.789 L128.23,58.245 L123.55,58.245 L123.55,57.453 L133.822,57.453 L133.822,58.245 L129.142,58.245 z" fill="#000000"/>
    <path d="M135.358,57.453 L136.27,57.453 L136.27,62.613 L141.238,62.613 Q143.038,62.613 144.046,63.561 Q145.054,64.509 145.054,66.165 Q145.054,67.869 144.022,68.829 Q142.99,69.789 141.19,69.789 L135.358,69.789 z M144.142,66.165 Q144.142,64.917 143.35,64.161 Q142.558,63.405 141.094,63.405 L136.27,63.405 L136.27,68.997 L141.07,68.997 Q142.558,68.997 143.35,68.253 Q144.142,67.509 144.142,66.165 z" fill="#000000"/>
    <path d="M154.87,60.285 L154.918,60.285 Q155.062,59.829 155.398,59.277 Q155.734,58.725 156.286,58.257 Q156.838,57.789 157.618,57.477 Q158.398,57.165 159.406,57.165 Q160.822,57.165 161.866,57.693 Q162.91,58.221 163.594,59.109 Q164.278,59.997 164.614,61.173 Q164.95,62.349 164.95,63.645 Q164.95,65.061 164.614,66.237 Q164.278,67.413 163.594,68.265 Q162.91,69.117 161.866,69.597 Q160.822,70.077 159.406,70.077 Q157.87,70.077 156.67,69.405 Q155.47,68.733 154.918,67.221 L154.87,67.221 L154.87,74.205 L153.958,74.205 L153.958,57.453 L154.87,57.453 z M159.406,69.285 Q160.606,69.285 161.482,68.829 Q162.358,68.373 162.922,67.605 Q163.486,66.837 163.762,65.817 Q164.038,64.797 164.038,63.645 Q164.038,62.589 163.774,61.569 Q163.51,60.549 162.958,59.745 Q162.406,58.941 161.53,58.449 Q160.654,57.957 159.406,57.957 Q158.182,57.957 157.318,58.437 Q156.454,58.917 155.914,59.709 Q155.374,60.501 155.134,61.521 Q154.894,62.541 154.894,63.645 Q154.894,64.749 155.11,65.769 Q155.326,66.789 155.842,67.569 Q156.358,68.349 157.234,68.817 Q158.11,69.285 159.406,69.285 z" fill="#000000"/>
    <path d="M166.51,63.621 Q166.51,62.301 166.882,61.137 Q167.254,59.973 167.974,59.085 Q168.694,58.197 169.75,57.681 Q170.806,57.165 172.174,57.165 Q173.542,57.165 174.598,57.681 Q175.654,58.197 176.374,59.085 Q177.094,59.973 177.466,61.137 Q177.838,62.301 177.838,63.621 Q177.838,64.941 177.466,66.117 Q177.094,67.293 176.374,68.169 Q175.654,69.045 174.598,69.561 Q173.542,70.077 172.174,70.077 Q170.806,70.077 169.75,69.561 Q168.694,69.045 167.974,68.169 Q167.254,67.293 166.882,66.117 Q166.51,64.941 166.51,63.621 z M167.422,63.621 Q167.422,64.725 167.734,65.745 Q168.046,66.765 168.646,67.557 Q169.246,68.349 170.134,68.817 Q171.022,69.285 172.174,69.285 Q173.326,69.285 174.214,68.817 Q175.102,68.349 175.702,67.557 Q176.302,66.765 176.614,65.745 Q176.926,64.725 176.926,63.621 Q176.926,62.517 176.614,61.497 Q176.302,60.477 175.702,59.685 Q175.102,58.893 174.214,58.425 Q173.326,57.957 172.174,57.957 Q171.022,57.957 170.134,58.425 Q169.246,58.893 168.646,59.685 Q168.046,60.477 167.734,61.497 Q167.422,62.517 167.422,63.621 z" fill="#000000"/>
    <path d="M178.486,57.453 L179.566,57.453 L184.15,68.709 L188.374,57.453 L189.406,57.453 L184.126,71.109 Q183.742,72.021 183.418,72.681 Q183.094,73.341 182.686,73.653 Q182.206,74.037 181.546,74.121 Q180.886,74.205 179.806,74.205 L179.806,73.413 Q180.79,73.413 181.342,73.257 Q181.894,73.101 182.374,72.621 Q182.638,72.357 182.926,71.649 Q183.214,70.941 183.646,69.717 z" fill="#000000"/>
    <path d="M195.07,69.789 L194.158,69.789 L194.158,58.245 L189.478,58.245 L189.478,57.453 L199.75,57.453 L199.75,58.245 L195.07,58.245 z" fill="#000000"/>
    <path d="M201.214,63.741 L201.214,63.885 Q201.214,64.965 201.502,65.949 Q201.79,66.933 202.354,67.677 Q202.918,68.421 203.77,68.853 Q204.622,69.285 205.75,69.285 Q207.598,69.285 208.678,68.313 Q209.758,67.341 210.166,65.613 L211.078,65.613 Q210.67,67.773 209.314,68.925 Q207.958,70.077 205.726,70.077 Q204.358,70.077 203.338,69.585 Q202.318,69.093 201.634,68.241 Q200.95,67.389 200.614,66.225 Q200.278,65.061 200.278,63.717 Q200.278,62.421 200.626,61.233 Q200.974,60.045 201.67,59.145 Q202.366,58.245 203.41,57.705 Q204.454,57.165 205.87,57.165 Q207.166,57.165 208.162,57.645 Q209.158,58.125 209.83,58.953 Q210.502,59.781 210.85,60.873 Q211.198,61.965 211.198,63.213 Q211.198,63.333 211.186,63.489 Q211.174,63.645 211.174,63.741 z M210.262,62.949 Q210.214,61.941 209.926,61.041 Q209.638,60.141 209.074,59.457 Q208.51,58.773 207.706,58.365 Q206.902,57.957 205.87,57.957 Q204.766,57.957 203.926,58.377 Q203.086,58.797 202.51,59.481 Q201.934,60.165 201.622,61.077 Q201.31,61.989 201.238,62.949 z" fill="#000000"/>
    <path d="M214.438,60.285 L214.486,60.285 Q214.63,59.829 214.966,59.277 Q215.302,58.725 215.854,58.257 Q216.406,57.789 217.186,57.477 Q217.966,57.165 218.974,57.165 Q220.39,57.165 221.434,57.693 Q222.478,58.221 223.162,59.109 Q223.846,59.997 224.182,61.173 Q224.518,62.349 224.518,63.645 Q224.518,65.061 224.182,66.237 Q223.846,67.413 223.162,68.265 Q222.478,69.117 221.434,69.597 Q220.39,70.077 218.974,70.077 Q217.438,70.077 216.238,69.405 Q215.038,68.733 214.486,67.221 L214.438,67.221 L214.438,74.205 L213.526,74.205 L213.526,57.453 L214.438,57.453 z M218.974,69.285 Q220.174,69.285 221.05,68.829 Q221.926,68.373 222.49,67.605 Q223.054,66.837 223.33,65.817 Q223.606,64.797 223.606,63.645 Q223.606,62.589 223.342,61.569 Q223.078,60.549 222.526,59.745 Q221.974,58.941 221.098,58.449 Q220.222,57.957 218.974,57.957 Q217.75,57.957 216.886,58.437 Q216.022,58.917 215.482,59.709 Q214.942,60.501 214.702,61.521 Q214.462,62.541 214.462,63.645 Q214.462,64.749 214.678,65.769 Q214.894,66.789 215.41,67.569 Q215.926,68.349 216.802,68.817 Q217.678,69.285 218.974,69.285 z" fill="#000000"/>
    <path d="M230.974,65.445 Q230.974,64.485 231.142,63.753 Q231.31,63.021 231.598,62.445 Q231.886,61.869 232.27,61.401 Q232.654,60.933 233.086,60.525 Q233.518,60.117 233.95,59.673 Q234.382,59.229 234.718,58.749 Q235.054,58.269 235.258,57.717 Q235.462,57.165 235.462,56.541 Q235.462,55.653 235.138,55.017 Q234.814,54.381 234.274,53.961 Q233.734,53.541 233.038,53.349 Q232.342,53.157 231.598,53.157 Q230.518,53.157 229.702,53.517 Q228.886,53.877 228.346,54.525 Q227.806,55.173 227.53,56.049 Q227.254,56.925 227.254,57.957 L226.342,57.957 Q226.342,56.685 226.69,55.629 Q227.038,54.573 227.71,53.817 Q228.382,53.061 229.378,52.653 Q230.374,52.245 231.67,52.245 Q232.63,52.245 233.482,52.509 Q234.334,52.773 234.982,53.301 Q235.63,53.829 236.002,54.645 Q236.374,55.461 236.374,56.541 Q236.374,57.309 236.194,57.897 Q236.014,58.485 235.714,58.965 Q235.414,59.445 235.03,59.841 Q234.646,60.237 234.238,60.621 Q233.83,60.981 233.41,61.377 Q232.99,61.773 232.654,62.325 Q232.318,62.877 232.102,63.633 Q231.886,64.389 231.886,65.445 z M230.854,67.317 L232.078,67.317 L232.078,69.789 L230.854,69.789 z" fill="#000000"/>
    <path d="M369.115,26.409 L376.459,26.409 Q378.079,26.409 379.159,25.491 Q380.239,24.573 380.239,22.845 Q380.239,20.901 379.267,20.109 Q378.295,19.317 376.459,19.317 L369.115,19.317 z M364.615,15.645 L377.107,15.645 Q380.563,15.645 382.651,17.229 Q384.739,18.813 384.739,22.017 Q384.739,23.961 383.785,25.347 Q382.831,26.733 381.067,27.489 L381.067,27.561 Q383.443,28.065 384.667,29.811 Q385.891,31.557 385.891,34.185 Q385.891,35.697 385.351,37.011 Q384.811,38.325 383.659,39.279 Q382.507,40.233 380.707,40.791 Q378.907,41.349 376.423,41.349 L364.615,41.349 z M369.115,37.677 L377.071,37.677 Q379.123,37.677 380.257,36.615 Q381.391,35.553 381.391,33.609 Q381.391,31.701 380.257,30.675 Q379.123,29.649 377.071,29.649 L369.115,29.649 z" fill="#000000"/>
    <path d="M402.163,30.405 Q402.091,29.433 401.749,28.533 Q401.407,27.633 400.813,26.967 Q400.219,26.301 399.373,25.887 Q398.527,25.473 397.483,25.473 Q396.403,25.473 395.521,25.851 Q394.639,26.229 394.009,26.895 Q393.379,27.561 393.001,28.461 Q392.623,29.361 392.587,30.405 z M392.587,33.105 Q392.587,34.185 392.893,35.193 Q393.199,36.201 393.811,36.957 Q394.423,37.713 395.359,38.163 Q396.295,38.613 397.591,38.613 Q399.391,38.613 400.489,37.839 Q401.587,37.065 402.127,35.517 L406.015,35.517 Q405.691,37.029 404.899,38.217 Q404.107,39.405 402.991,40.215 Q401.875,41.025 400.489,41.439 Q399.103,41.853 397.591,41.853 Q395.395,41.853 393.703,41.133 Q392.011,40.413 390.841,39.117 Q389.671,37.821 389.077,36.021 Q388.483,34.221 388.483,32.061 Q388.483,30.081 389.113,28.299 Q389.743,26.517 390.913,25.167 Q392.083,23.817 393.739,23.025 Q395.395,22.233 397.483,22.233 Q399.679,22.233 401.425,23.151 Q403.171,24.069 404.323,25.581 Q405.475,27.093 405.997,29.055 Q406.519,31.017 406.267,33.105 z" fill="#000000"/>
    <path d="M417.931,41.853 Q413.431,41.853 410.983,38.865 Q408.535,35.877 408.535,30.189 Q408.535,28.893 408.661,27.525 Q408.787,26.157 409.057,24.861 Q409.327,23.565 409.777,22.359 Q410.227,21.153 410.911,20.181 Q412.207,18.237 414.097,17.319 Q415.987,16.401 418.831,16.257 Q420.019,16.221 420.739,16.149 Q421.459,16.077 421.873,15.951 Q422.287,15.825 422.467,15.609 Q422.647,15.393 422.719,15.033 L426.571,15.033 Q426.499,16.437 426.157,17.355 Q425.815,18.273 425.077,18.831 Q424.339,19.389 423.151,19.659 Q421.963,19.929 420.235,20.037 Q418.075,20.181 416.599,20.649 Q415.123,21.117 414.187,21.873 Q413.251,22.629 412.747,23.673 Q412.243,24.717 412.063,25.941 L412.135,25.941 Q413.143,24.429 414.871,23.547 Q416.599,22.665 419.083,22.665 Q420.883,22.665 422.395,23.331 Q423.907,23.997 425.005,25.221 Q426.103,26.445 426.715,28.173 Q427.327,29.901 427.327,32.025 Q427.327,34.185 426.697,35.985 Q426.067,37.785 424.861,39.081 Q423.655,40.377 421.909,41.115 Q420.163,41.853 417.931,41.853 z M417.931,38.613 Q419.299,38.613 420.307,38.037 Q421.315,37.461 421.963,36.525 Q422.611,35.589 422.917,34.419 Q423.223,33.249 423.223,32.025 Q423.223,30.837 422.917,29.721 Q422.611,28.605 421.963,27.759 Q421.315,26.913 420.307,26.409 Q419.299,25.905 417.931,25.905 Q416.563,25.905 415.555,26.409 Q414.547,26.913 413.899,27.759 Q413.251,28.605 412.945,29.721 Q412.639,30.837 412.639,32.025 Q412.639,33.249 412.945,34.419 Q413.251,35.589 413.899,36.525 Q414.547,37.461 415.555,38.037 Q416.563,38.613 417.931,38.613 z" fill="#000000"/>
    <path d="M430.855,22.737 L434.959,22.737 L434.959,35.517 L435.031,35.517 L443.203,22.737 L448.279,22.737 L448.279,41.349 L444.175,41.349 L444.175,28.461 L444.103,28.461 L435.751,41.349 L430.855,41.349 z" fill="#000000"/>
    <path d="M452.851,22.737 L456.955,22.737 L456.955,30.441 L466.207,30.441 L466.207,22.737 L470.311,22.737 L470.311,41.349 L466.207,41.349 L466.207,33.501 L456.955,33.501 L456.955,41.349 L452.851,41.349 z" fill="#000000"/>
    <path d="M490.327,37.209 Q490.327,37.965 490.525,38.289 Q490.723,38.613 491.299,38.613 L491.731,38.613 Q491.983,38.613 492.307,38.541 L492.307,41.385 Q492.091,41.457 491.749,41.547 Q491.407,41.637 491.047,41.709 Q490.687,41.781 490.327,41.817 Q489.967,41.853 489.715,41.853 Q488.455,41.853 487.627,41.349 Q486.799,40.845 486.547,39.585 Q485.323,40.773 483.541,41.313 Q481.759,41.853 480.103,41.853 Q478.843,41.853 477.691,41.511 Q476.539,41.169 475.657,40.503 Q474.775,39.837 474.253,38.811 Q473.731,37.785 473.731,36.417 Q473.731,34.689 474.361,33.609 Q474.991,32.529 476.017,31.917 Q477.043,31.305 478.321,31.035 Q479.599,30.765 480.895,30.621 Q482.011,30.405 483.019,30.315 Q484.027,30.225 484.801,30.009 Q485.575,29.793 486.025,29.343 Q486.475,28.893 486.475,27.993 Q486.475,27.201 486.097,26.697 Q485.719,26.193 485.161,25.923 Q484.603,25.653 483.919,25.563 Q483.235,25.473 482.623,25.473 Q480.895,25.473 479.779,26.193 Q478.663,26.913 478.519,28.425 L474.415,28.425 Q474.523,26.625 475.279,25.437 Q476.035,24.249 477.205,23.529 Q478.375,22.809 479.851,22.521 Q481.327,22.233 482.875,22.233 Q484.243,22.233 485.575,22.521 Q486.907,22.809 487.969,23.457 Q489.031,24.105 489.679,25.131 Q490.327,26.157 490.327,27.633 z M486.223,32.025 Q485.287,32.637 483.919,32.763 Q482.551,32.889 481.183,33.141 Q480.535,33.249 479.923,33.447 Q479.311,33.645 478.843,33.987 Q478.375,34.329 478.105,34.887 Q477.835,35.445 477.835,36.237 Q477.835,36.921 478.231,37.389 Q478.627,37.857 479.185,38.127 Q479.743,38.397 480.409,38.505 Q481.075,38.613 481.615,38.613 Q482.299,38.613 483.091,38.433 Q483.883,38.253 484.585,37.821 Q485.287,37.389 485.755,36.723 Q486.223,36.057 486.223,35.085 z" fill="#000000"/>
    <path d="M494.863,22.737 L498.751,22.737 L498.751,25.257 L498.823,25.257 Q499.687,23.637 501.235,22.935 Q502.783,22.233 504.583,22.233 Q506.779,22.233 508.417,23.007 Q510.055,23.781 511.135,25.131 Q512.215,26.481 512.755,28.281 Q513.295,30.081 513.295,32.133 Q513.295,34.005 512.809,35.769 Q512.323,37.533 511.333,38.883 Q510.343,40.233 508.831,41.043 Q507.319,41.853 505.267,41.853 Q504.367,41.853 503.467,41.691 Q502.567,41.529 501.739,41.169 Q500.911,40.809 500.209,40.251 Q499.507,39.693 499.039,38.937 L498.967,38.937 L498.967,48.225 L494.863,48.225 z M509.191,32.061 Q509.191,30.801 508.867,29.613 Q508.543,28.425 507.895,27.507 Q507.247,26.589 506.275,26.031 Q505.303,25.473 504.043,25.473 Q501.451,25.473 500.137,27.273 Q498.823,29.073 498.823,32.061 Q498.823,33.465 499.165,34.671 Q499.507,35.877 500.191,36.741 Q500.875,37.605 501.829,38.109 Q502.783,38.613 504.043,38.613 Q505.447,38.613 506.419,38.037 Q507.391,37.461 508.021,36.543 Q508.651,35.625 508.921,34.455 Q509.191,33.285 509.191,32.061 z" fill="#000000"/>
    <path d="M520.963,38.289 L526.255,38.289 Q527.335,38.289 528.127,37.641 Q528.919,36.993 528.919,35.553 Q528.919,34.113 528.127,33.573 Q527.335,33.033 526.255,33.033 L520.963,33.033 z M516.859,22.737 L520.963,22.737 L520.963,29.865 L526.435,29.865 Q528.523,29.865 529.801,30.441 Q531.079,31.017 531.799,31.863 Q532.519,32.709 532.771,33.717 Q533.023,34.725 533.023,35.589 Q533.023,36.453 532.771,37.461 Q532.519,38.469 531.799,39.333 Q531.079,40.197 529.801,40.773 Q528.523,41.349 526.435,41.349 L516.859,41.349 z M536.479,41.349 L536.479,22.737 L540.583,22.737 L540.583,41.349 z" fill="#000000"/>
    <path d="M364.705,53.427 L365.587,53.427 L365.587,59.615 L369.577,53.427 L370.669,53.427 L370.669,60.651 L369.787,60.651 L369.787,54.463 L365.797,60.651 L364.705,60.651 z" fill="#000000"/>
    <path d="M372.321,53.427 L373.203,53.427 L373.203,56.493 L377.305,56.493 L377.305,53.427 L378.187,53.427 L378.187,60.651 L377.305,60.651 L377.305,57.235 L373.203,57.235 L373.203,60.651 L372.321,60.651 z" fill="#000000"/>
    <path d="M384.179,59.881 L384.151,59.881 Q383.913,60.301 383.423,60.574 Q382.933,60.847 382.345,60.847 Q381.771,60.847 381.267,60.595 Q380.763,60.343 380.378,59.86 Q379.993,59.377 379.769,58.677 Q379.545,57.977 379.545,57.067 Q379.545,55.149 380.294,54.183 Q381.043,53.217 382.359,53.217 Q382.947,53.217 383.409,53.476 Q383.871,53.735 384.151,54.197 L384.179,54.197 L384.179,50.655 L385.061,50.655 L385.061,54.197 L385.089,54.197 Q385.369,53.735 385.831,53.476 Q386.293,53.217 386.881,53.217 Q388.197,53.217 388.946,54.183 Q389.695,55.149 389.695,57.067 Q389.695,57.977 389.471,58.677 Q389.247,59.377 388.862,59.86 Q388.477,60.343 387.966,60.595 Q387.455,60.847 386.895,60.847 Q386.307,60.847 385.817,60.574 Q385.327,60.301 385.089,59.881 Q385.075,59.895 385.061,59.881 L385.061,63.311 L384.179,63.311 z M382.569,60.105 Q383.255,60.105 383.717,59.678 Q384.179,59.251 384.179,58.537 L384.179,55.499 Q384.179,55.163 384.053,54.883 Q383.927,54.603 383.717,54.393 Q383.507,54.183 383.213,54.071 Q382.919,53.959 382.583,53.959 Q382.135,53.959 381.743,54.134 Q381.351,54.309 381.057,54.687 Q380.763,55.065 380.595,55.653 Q380.427,56.241 380.427,57.067 Q380.427,57.865 380.581,58.446 Q380.735,59.027 381.022,59.391 Q381.309,59.755 381.701,59.93 Q382.093,60.105 382.569,60.105 z M386.671,60.105 Q387.147,60.105 387.539,59.93 Q387.931,59.755 388.211,59.391 Q388.491,59.027 388.652,58.446 Q388.813,57.865 388.813,57.067 Q388.813,56.241 388.645,55.653 Q388.477,55.065 388.183,54.687 Q387.889,54.309 387.497,54.134 Q387.105,53.959 386.657,53.959 Q386.321,53.959 386.027,54.071 Q385.733,54.183 385.523,54.393 Q385.313,54.603 385.187,54.883 Q385.061,55.163 385.061,55.499 L385.061,58.537 Q385.061,59.251 385.523,59.678 Q385.985,60.105 386.671,60.105 z" fill="#000000"/>
    <path d="M394.105,60.847 Q393.279,60.847 392.642,60.546 Q392.005,60.245 391.571,59.727 Q391.137,59.209 390.913,58.516 Q390.689,57.823 390.689,57.039 Q390.689,56.269 390.913,55.569 Q391.137,54.869 391.571,54.351 Q392.005,53.833 392.642,53.525 Q393.279,53.217 394.105,53.217 Q394.931,53.217 395.568,53.525 Q396.205,53.833 396.639,54.351 Q397.073,54.869 397.297,55.569 Q397.521,56.269 397.521,57.039 Q397.521,57.823 397.297,58.516 Q397.073,59.209 396.639,59.727 Q396.205,60.245 395.568,60.546 Q394.931,60.847 394.105,60.847 z M394.105,60.119 Q394.735,60.119 395.211,59.853 Q395.687,59.587 396.002,59.153 Q396.317,58.719 396.478,58.166 Q396.639,57.613 396.639,57.039 Q396.639,56.465 396.478,55.912 Q396.317,55.359 396.002,54.925 Q395.687,54.491 395.211,54.225 Q394.735,53.959 394.105,53.959 Q393.475,53.959 392.999,54.225 Q392.523,54.491 392.208,54.925 Q391.893,55.359 391.732,55.912 Q391.571,56.465 391.571,57.039 Q391.571,57.613 391.732,58.166 Q391.893,58.719 392.208,59.153 Q392.523,59.587 392.999,59.853 Q393.475,60.119 394.105,60.119 z" fill="#000000"/>
    <path d="M398.837,53.427 L399.649,53.427 L399.649,54.799 L399.677,54.799 Q399.985,54.043 400.678,53.63 Q401.371,53.217 402.253,53.217 Q403.079,53.217 403.688,53.525 Q404.297,53.833 404.703,54.358 Q405.109,54.883 405.305,55.576 Q405.501,56.269 405.501,57.039 Q405.501,57.823 405.305,58.509 Q405.109,59.195 404.703,59.72 Q404.297,60.245 403.688,60.546 Q403.079,60.847 402.253,60.847 Q401.847,60.847 401.462,60.749 Q401.077,60.651 400.741,60.455 Q400.405,60.259 400.146,59.965 Q399.887,59.671 399.747,59.279 L399.719,59.279 L399.719,63.311 L398.837,63.311 z M402.253,60.119 Q402.883,60.119 403.331,59.846 Q403.779,59.573 404.066,59.139 Q404.353,58.705 404.486,58.152 Q404.619,57.599 404.619,57.039 Q404.619,56.479 404.486,55.926 Q404.353,55.373 404.066,54.939 Q403.779,54.505 403.331,54.232 Q402.883,53.959 402.253,53.959 Q401.511,53.959 401.028,54.211 Q400.545,54.463 400.251,54.883 Q399.957,55.303 399.838,55.863 Q399.719,56.423 399.719,57.039 Q399.719,57.599 399.852,58.152 Q399.985,58.705 400.286,59.139 Q400.587,59.573 401.07,59.846 Q401.553,60.119 402.253,60.119 z" fill="#000000"/>
    <path d="M406.859,53.427 L408.035,53.427 L410.723,59.657 L413.383,53.427 L414.559,53.427 L414.559,60.651 L413.677,60.651 L413.677,54.701 L413.635,54.701 L411.101,60.651 L410.317,60.651 L407.783,54.701 L407.741,54.701 L407.741,60.651 L406.859,60.651 z" fill="#000000"/>
    <path d="M418.255,60.847 Q417.751,60.847 417.31,60.728 Q416.869,60.609 416.54,60.35 Q416.211,60.091 416.022,59.692 Q415.833,59.293 415.833,58.747 Q415.833,57.991 416.169,57.564 Q416.505,57.137 417.058,56.913 Q417.611,56.689 418.304,56.598 Q418.997,56.507 419.711,56.423 Q419.977,56.395 420.194,56.353 Q420.411,56.311 420.551,56.206 Q420.691,56.101 420.768,55.919 Q420.845,55.737 420.845,55.443 Q420.845,54.995 420.698,54.708 Q420.551,54.421 420.292,54.253 Q420.033,54.085 419.69,54.022 Q419.347,53.959 418.955,53.959 Q418.115,53.959 417.583,54.358 Q417.051,54.757 417.023,55.639 L416.141,55.639 Q416.225,54.365 417.016,53.791 Q417.807,53.217 419.067,53.217 Q419.543,53.217 420.019,53.308 Q420.495,53.399 420.873,53.651 Q421.251,53.903 421.489,54.358 Q421.727,54.813 421.727,55.541 L421.727,59.377 Q421.727,59.909 422.245,59.909 Q422.413,59.909 422.525,59.853 L422.525,60.595 Q422.371,60.623 422.252,60.637 Q422.133,60.651 421.951,60.651 Q421.615,60.651 421.412,60.56 Q421.209,60.469 421.097,60.301 Q420.985,60.133 420.95,59.902 Q420.915,59.671 420.915,59.391 L420.887,59.391 Q420.649,59.741 420.404,60.014 Q420.159,60.287 419.858,60.469 Q419.557,60.651 419.165,60.749 Q418.773,60.847 418.255,60.847 z M418.325,60.119 Q418.829,60.119 419.291,59.965 Q419.753,59.811 420.096,59.517 Q420.439,59.223 420.642,58.803 Q420.845,58.383 420.845,57.851 L420.845,56.703 L420.817,56.703 Q420.733,56.857 420.495,56.927 Q420.257,56.997 420.075,57.025 Q419.515,57.123 418.92,57.2 Q418.325,57.277 417.835,57.431 Q417.345,57.585 417.03,57.879 Q416.715,58.173 416.715,58.691 Q416.715,59.027 416.848,59.286 Q416.981,59.545 417.205,59.734 Q417.429,59.923 417.716,60.021 Q418.003,60.119 418.325,60.119 z" fill="#000000"/>
    <path d="M429.385,60.651 L423.477,60.651 L423.477,53.427 L424.359,53.427 L424.359,59.909 L428.321,59.909 L428.321,53.427 L429.203,53.427 L429.203,59.909 L430.267,59.909 L430.267,62.947 L429.385,62.947 z" fill="#000000"/>
    <path d="M431.205,53.427 L432.087,53.427 L432.087,59.615 L436.077,53.427 L437.169,53.427 L437.169,60.651 L436.287,60.651 L436.287,54.463 L432.297,60.651 L431.205,60.651 z" fill="#000000"/>
    <path d="M441.887,60.847 Q441.061,60.847 440.424,60.546 Q439.787,60.245 439.353,59.727 Q438.919,59.209 438.695,58.516 Q438.471,57.823 438.471,57.039 Q438.471,56.269 438.695,55.569 Q438.919,54.869 439.353,54.351 Q439.787,53.833 440.424,53.525 Q441.061,53.217 441.887,53.217 Q442.713,53.217 443.35,53.525 Q443.987,53.833 444.421,54.351 Q444.855,54.869 445.079,55.569 Q445.303,56.269 445.303,57.039 Q445.303,57.823 445.079,58.516 Q444.855,59.209 444.421,59.727 Q443.987,60.245 443.35,60.546 Q442.713,60.847 441.887,60.847 z M441.887,60.119 Q442.517,60.119 442.993,59.853 Q443.469,59.587 443.784,59.153 Q444.099,58.719 444.26,58.166 Q444.421,57.613 444.421,57.039 Q444.421,56.465 444.26,55.912 Q444.099,55.359 443.784,54.925 Q443.469,54.491 442.993,54.225 Q442.517,53.959 441.887,53.959 Q441.257,53.959 440.781,54.225 Q440.305,54.491 439.99,54.925 Q439.675,55.359 439.514,55.912 Q439.353,56.465 439.353,57.039 Q439.353,57.613 439.514,58.166 Q439.675,58.719 439.99,59.153 Q440.305,59.587 440.781,59.853 Q441.257,60.119 441.887,60.119 z" fill="#000000"/>
    <path d="M446.605,53.427 L447.487,53.427 L447.487,56.493 L451.589,56.493 L451.589,53.427 L452.471,53.427 L452.471,60.651 L451.589,60.651 L451.589,57.235 L447.487,57.235 L447.487,60.651 L446.605,60.651 z" fill="#000000"/>
    <path d="M454.123,53.427 L455.005,53.427 L455.005,56.493 L459.107,56.493 L459.107,53.427 L459.989,53.427 L459.989,60.651 L459.107,60.651 L459.107,57.235 L455.005,57.235 L455.005,60.651 L454.123,60.651 z" fill="#000000"/>
    <path d="M461.641,53.427 L462.523,53.427 L462.523,56.325 L464.861,56.325 Q465.911,56.325 466.527,56.885 Q467.143,57.445 467.143,58.467 Q467.143,59.489 466.527,60.07 Q465.911,60.651 464.861,60.651 L461.641,60.651 z M464.651,59.909 Q465.407,59.909 465.834,59.545 Q466.261,59.181 466.261,58.467 Q466.261,57.753 465.834,57.41 Q465.407,57.067 464.651,57.067 L462.523,57.067 L462.523,59.909 z M468.501,53.427 L469.383,53.427 L469.383,60.651 L468.501,60.651 z" fill="#000000"/>
    <path d="M471.035,60.651 L472.127,60.651 L476.117,54.463 L476.117,60.651 L476.999,60.651 L476.999,53.427 L475.907,53.427 L471.917,59.615 L471.917,53.427 L471.035,53.427 z M473.989,52.363 Q474.871,52.363 475.375,51.894 Q475.879,51.425 476.033,50.543 L475.487,50.543 Q475.375,51.089 474.99,51.39 Q474.605,51.691 474.003,51.691 Q473.373,51.691 473.002,51.383 Q472.631,51.075 472.561,50.543 L472.015,50.543 Q472.127,51.425 472.617,51.894 Q473.107,52.363 473.989,52.363 z" fill="#000000"/>
    <path d="M482.543,53.427 L488.311,53.427 L488.311,60.651 L487.429,60.651 L487.429,54.169 L483.425,54.169 L483.425,60.651 L482.543,60.651 z" fill="#000000"/>
    <path d="M489.977,53.427 L490.789,53.427 L490.789,54.799 L490.817,54.799 Q491.125,54.043 491.818,53.63 Q492.511,53.217 493.393,53.217 Q494.219,53.217 494.828,53.525 Q495.437,53.833 495.843,54.358 Q496.249,54.883 496.445,55.576 Q496.641,56.269 496.641,57.039 Q496.641,57.823 496.445,58.509 Q496.249,59.195 495.843,59.72 Q495.437,60.245 494.828,60.546 Q494.219,60.847 493.393,60.847 Q492.987,60.847 492.602,60.749 Q492.217,60.651 491.881,60.455 Q491.545,60.259 491.286,59.965 Q491.027,59.671 490.887,59.279 L490.859,59.279 L490.859,63.311 L489.977,63.311 z M493.393,60.119 Q494.023,60.119 494.471,59.846 Q494.919,59.573 495.206,59.139 Q495.493,58.705 495.626,58.152 Q495.759,57.599 495.759,57.039 Q495.759,56.479 495.626,55.926 Q495.493,55.373 495.206,54.939 Q494.919,54.505 494.471,54.232 Q494.023,53.959 493.393,53.959 Q492.651,53.959 492.168,54.211 Q491.685,54.463 491.391,54.883 Q491.097,55.303 490.978,55.863 Q490.859,56.423 490.859,57.039 Q490.859,57.599 490.992,58.152 Q491.125,58.705 491.426,59.139 Q491.727,59.573 492.21,59.846 Q492.693,60.119 493.393,60.119 z" fill="#000000"/>
    <path d="M501.065,60.847 Q500.239,60.847 499.602,60.546 Q498.965,60.245 498.531,59.727 Q498.097,59.209 497.873,58.516 Q497.649,57.823 497.649,57.039 Q497.649,56.269 497.873,55.569 Q498.097,54.869 498.531,54.351 Q498.965,53.833 499.602,53.525 Q500.239,53.217 501.065,53.217 Q501.891,53.217 502.528,53.525 Q503.165,53.833 503.599,54.351 Q504.033,54.869 504.257,55.569 Q504.481,56.269 504.481,57.039 Q504.481,57.823 504.257,58.516 Q504.033,59.209 503.599,59.727 Q503.165,60.245 502.528,60.546 Q501.891,60.847 501.065,60.847 z M501.065,60.119 Q501.695,60.119 502.171,59.853 Q502.647,59.587 502.962,59.153 Q503.277,58.719 503.438,58.166 Q503.599,57.613 503.599,57.039 Q503.599,56.465 503.438,55.912 Q503.277,55.359 502.962,54.925 Q502.647,54.491 502.171,54.225 Q501.695,53.959 501.065,53.959 Q500.435,53.959 499.959,54.225 Q499.483,54.491 499.168,54.925 Q498.853,55.359 498.692,55.912 Q498.531,56.465 498.531,57.039 Q498.531,57.613 498.692,58.166 Q498.853,58.719 499.168,59.153 Q499.483,59.587 499.959,59.853 Q500.435,60.119 501.065,60.119 z" fill="#000000"/>
    <path d="M508.695,60.847 Q507.827,60.847 507.211,60.546 Q506.595,60.245 506.203,59.72 Q505.811,59.195 505.622,58.509 Q505.433,57.823 505.433,57.039 Q505.433,56.325 505.622,55.639 Q505.811,54.953 506.203,54.414 Q506.595,53.875 507.211,53.546 Q507.827,53.217 508.695,53.217 Q509.563,53.217 510.179,53.567 Q510.795,53.917 511.18,54.484 Q511.565,55.051 511.733,55.786 Q511.901,56.521 511.873,57.277 L506.315,57.277 Q506.315,57.767 506.448,58.271 Q506.581,58.775 506.875,59.181 Q507.169,59.587 507.617,59.853 Q508.065,60.119 508.695,60.119 Q509.661,60.119 510.207,59.615 Q510.753,59.111 510.963,58.271 L511.845,58.271 Q511.565,59.503 510.816,60.175 Q510.067,60.847 508.695,60.847 z M510.991,56.535 Q510.977,56.031 510.816,55.569 Q510.655,55.107 510.361,54.75 Q510.067,54.393 509.647,54.176 Q509.227,53.959 508.695,53.959 Q508.149,53.959 507.729,54.176 Q507.309,54.393 507.015,54.75 Q506.721,55.107 506.546,55.576 Q506.371,56.045 506.315,56.535 z" fill="#000000"/>
    <path d="M513.063,53.427 L513.945,53.427 L513.945,57.137 L517.949,53.427 L519.125,53.427 L516.059,56.255 L519.307,60.651 L518.201,60.651 L515.415,56.857 L513.945,58.215 L513.945,60.651 L513.063,60.651 z" fill="#000000"/>
    <path d="M521.855,54.169 L519.181,54.169 L519.181,53.427 L525.411,53.427 L525.411,54.169 L522.737,54.169 L522.737,60.651 L521.855,60.651 z" fill="#000000"/>
    <path d="M367.771,77.847 Q366.945,77.847 366.308,77.546 Q365.671,77.245 365.237,76.727 Q364.803,76.209 364.579,75.516 Q364.355,74.823 364.355,74.039 Q364.355,73.269 364.579,72.569 Q364.803,71.869 365.237,71.351 Q365.671,70.833 366.308,70.525 Q366.945,70.217 367.771,70.217 Q368.597,70.217 369.234,70.525 Q369.871,70.833 370.305,71.351 Q370.739,71.869 370.963,72.569 Q371.187,73.269 371.187,74.039 Q371.187,74.823 370.963,75.516 Q370.739,76.209 370.305,76.727 Q369.871,77.245 369.234,77.546 Q368.597,77.847 367.771,77.847 z M367.771,77.119 Q368.401,77.119 368.877,76.853 Q369.353,76.587 369.668,76.153 Q369.983,75.719 370.144,75.166 Q370.305,74.613 370.305,74.039 Q370.305,73.465 370.144,72.912 Q369.983,72.359 369.668,71.925 Q369.353,71.491 368.877,71.225 Q368.401,70.959 367.771,70.959 Q367.141,70.959 366.665,71.225 Q366.189,71.491 365.874,71.925 Q365.559,72.359 365.398,72.912 Q365.237,73.465 365.237,74.039 Q365.237,74.613 365.398,75.166 Q365.559,75.719 365.874,76.153 Q366.189,76.587 366.665,76.853 Q367.141,77.119 367.771,77.119 z" fill="#000000"/>
    <path d="M374.323,71.169 L371.649,71.169 L371.649,70.427 L377.879,70.427 L377.879,71.169 L375.205,71.169 L375.205,77.651 L374.323,77.651 z" fill="#000000"/>
    <path d="M382.597,70.427 L383.479,70.427 L383.479,74.137 L387.483,70.427 L388.659,70.427 L385.593,73.255 L388.841,77.651 L387.735,77.651 L384.949,73.857 L383.479,75.215 L383.479,77.651 L382.597,77.651 z" fill="#000000"/>
    <path d="M392.621,77.847 Q391.795,77.847 391.158,77.546 Q390.521,77.245 390.087,76.727 Q389.653,76.209 389.429,75.516 Q389.205,74.823 389.205,74.039 Q389.205,73.269 389.429,72.569 Q389.653,71.869 390.087,71.351 Q390.521,70.833 391.158,70.525 Q391.795,70.217 392.621,70.217 Q393.447,70.217 394.084,70.525 Q394.721,70.833 395.155,71.351 Q395.589,71.869 395.813,72.569 Q396.037,73.269 396.037,74.039 Q396.037,74.823 395.813,75.516 Q395.589,76.209 395.155,76.727 Q394.721,77.245 394.084,77.546 Q393.447,77.847 392.621,77.847 z M392.621,77.119 Q393.251,77.119 393.727,76.853 Q394.203,76.587 394.518,76.153 Q394.833,75.719 394.994,75.166 Q395.155,74.613 395.155,74.039 Q395.155,73.465 394.994,72.912 Q394.833,72.359 394.518,71.925 Q394.203,71.491 393.727,71.225 Q393.251,70.959 392.621,70.959 Q391.991,70.959 391.515,71.225 Q391.039,71.491 390.724,71.925 Q390.409,72.359 390.248,72.912 Q390.087,73.465 390.087,74.039 Q390.087,74.613 390.248,75.166 Q390.409,75.719 390.724,76.153 Q391.039,76.587 391.515,76.853 Q391.991,77.119 392.621,77.119 z" fill="#000000"/>
    <path d="M397.339,70.427 L398.515,70.427 L401.203,76.657 L403.863,70.427 L405.039,70.427 L405.039,77.651 L404.157,77.651 L404.157,71.701 L404.115,71.701 L401.581,77.651 L400.797,77.651 L398.263,71.701 L398.221,71.701 L398.221,77.651 L397.339,77.651 z" fill="#000000"/>
    <path d="M406.691,70.427 L412.459,70.427 L412.459,77.651 L411.577,77.651 L411.577,71.169 L407.573,71.169 L407.573,77.651 L406.691,77.651 z" fill="#000000"/>
    <path d="M416.155,77.847 Q415.651,77.847 415.21,77.728 Q414.769,77.609 414.44,77.35 Q414.111,77.091 413.922,76.692 Q413.733,76.293 413.733,75.747 Q413.733,74.991 414.069,74.564 Q414.405,74.137 414.958,73.913 Q415.511,73.689 416.204,73.598 Q416.897,73.507 417.611,73.423 Q417.877,73.395 418.094,73.353 Q418.311,73.311 418.451,73.206 Q418.591,73.101 418.668,72.919 Q418.745,72.737 418.745,72.443 Q418.745,71.995 418.598,71.708 Q418.451,71.421 418.192,71.253 Q417.933,71.085 417.59,71.022 Q417.247,70.959 416.855,70.959 Q416.015,70.959 415.483,71.358 Q414.951,71.757 414.923,72.639 L414.041,72.639 Q414.125,71.365 414.916,70.791 Q415.707,70.217 416.967,70.217 Q417.443,70.217 417.919,70.308 Q418.395,70.399 418.773,70.651 Q419.151,70.903 419.389,71.358 Q419.627,71.813 419.627,72.541 L419.627,76.377 Q419.627,76.909 420.145,76.909 Q420.313,76.909 420.425,76.853 L420.425,77.595 Q420.271,77.623 420.152,77.637 Q420.033,77.651 419.851,77.651 Q419.515,77.651 419.312,77.56 Q419.109,77.469 418.997,77.301 Q418.885,77.133 418.85,76.902 Q418.815,76.671 418.815,76.391 L418.787,76.391 Q418.549,76.741 418.304,77.014 Q418.059,77.287 417.758,77.469 Q417.457,77.651 417.065,77.749 Q416.673,77.847 416.155,77.847 z M416.225,77.119 Q416.729,77.119 417.191,76.965 Q417.653,76.811 417.996,76.517 Q418.339,76.223 418.542,75.803 Q418.745,75.383 418.745,74.851 L418.745,73.703 L418.717,73.703 Q418.633,73.857 418.395,73.927 Q418.157,73.997 417.975,74.025 Q417.415,74.123 416.82,74.2 Q416.225,74.277 415.735,74.431 Q415.245,74.585 414.93,74.879 Q414.615,75.173 414.615,75.691 Q414.615,76.027 414.748,76.286 Q414.881,76.545 415.105,76.734 Q415.329,76.923 415.616,77.021 Q415.903,77.119 416.225,77.119 z" fill="#000000"/>
    <path d="M421.377,70.427 L422.259,70.427 L422.259,73.493 L426.361,73.493 L426.361,70.427 L427.243,70.427 L427.243,77.651 L426.361,77.651 L426.361,74.235 L422.259,74.235 L422.259,77.651 L421.377,77.651 z" fill="#000000"/>
    <path d="M428.895,70.427 L429.777,70.427 L429.777,76.615 L433.767,70.427 L434.859,70.427 L434.859,77.651 L433.977,77.651 L433.977,71.463 L429.987,77.651 L428.895,77.651 z" fill="#000000"/>
    <path d="M436.511,70.427 L437.393,70.427 L437.393,76.615 L441.383,70.427 L442.475,70.427 L442.475,77.651 L441.593,77.651 L441.593,71.463 L437.603,77.651 L436.511,77.651 z" fill="#000000"/>
    <path d="M448.047,67.655 L448.047,69.069 L448.929,69.069 L448.929,67.655 z M448.047,70.427 L448.047,77.651 L448.929,77.651 L448.929,70.427 z" fill="#000000"/>
    <path d="M451.743,72.401 L451.743,68.467 L455.299,68.467 Q456.391,68.467 456.923,68.999 Q457.455,69.531 457.455,70.455 Q457.455,70.917 457.28,71.274 Q457.105,71.631 456.811,71.883 Q456.517,72.135 456.125,72.268 Q455.733,72.401 455.299,72.401 z M450.791,67.655 L450.791,77.651 L451.743,77.651 L451.743,73.213 L455.355,73.213 Q456.027,73.185 456.412,73.437 Q456.797,73.689 457,74.102 Q457.203,74.515 457.266,75.04 Q457.329,75.565 457.357,76.097 Q457.371,76.251 457.385,76.461 Q457.399,76.671 457.42,76.888 Q457.441,77.105 457.49,77.308 Q457.539,77.511 457.623,77.651 L458.673,77.651 Q458.519,77.469 458.428,77.14 Q458.337,76.811 458.295,76.44 Q458.253,76.069 458.239,75.705 Q458.225,75.341 458.211,75.089 Q458.183,74.641 458.092,74.256 Q458.001,73.871 457.798,73.577 Q457.595,73.283 457.273,73.094 Q456.951,72.905 456.461,72.835 L456.461,72.807 Q457.427,72.611 457.917,71.911 Q458.407,71.211 458.407,70.259 Q458.407,69.587 458.162,69.09 Q457.917,68.593 457.504,68.278 Q457.091,67.963 456.538,67.809 Q455.985,67.655 455.369,67.655 z" fill="#000000"/>
    <path d="M459.639,67.655 L459.639,68.467 L465.771,68.467 L459.191,76.811 L459.191,77.651 L466.975,77.651 L466.975,76.839 L460.255,76.839 L466.835,68.495 L466.835,67.655 z" fill="#000000"/>
  </g>
  <g id="Layer 2" display="none"/>
  <defs/>
</svg>
