<?xml version="1.0" encoding="UTF-8"?>
<!DOCTYPE svg PUBLIC "-//W3C//DTD SVG 1.1//EN" "http://www.w3.org/Graphics/SVG/1.1/DTD/svg11.dtd">
<svg version="1.1" xmlns="http://www.w3.org/2000/svg" xmlns:xlink="http://www.w3.org/1999/xlink" x="0px" y="0px" width="55.55" height="41.85" viewBox="0, 0, 1111, 837">
  <g id="Layer 1">
    <path d="M113.852,693.643 L103.366,693.643 L82.573,621.777 C80.538,614.77 78.577,607.872 77.409,600.708 C75.301,607.594 73.833,614.601 71.821,621.501 L51.461,693.643 L40.868,693.643 L12.598,591.533 L22.784,591.533 L41.854,662.364 C43.672,669.407 45.141,676.414 46.586,683.445 C47.874,676.294 49.741,669.238 51.727,662.364 L71.965,591.533 L83.006,591.533 L103.643,663.363 C105.375,669.238 107.653,677.425 108.543,683.445 C110.073,676.859 111.372,670.105 113.094,663.507 L132.346,591.533 L142.086,591.533 L113.852,693.643" fill="#FFFFFE"/>
    <path d="M154.692,619.923 L163.745,619.923 L163.745,693.643 L154.692,693.643 z M154.692,591.087 L163.745,591.087 L163.745,605.873 L154.692,605.873 z" fill="#FFFFFE"/>
    <path d="M218.827,627.965 C217.792,627.965 216.961,627.797 216.383,627.797 C205.342,627.797 195.723,634.696 192.846,645.303 C191.702,649.757 191.149,654.056 191.149,663.507 L191.149,693.643 L182.227,693.643 L182.227,619.923 L190.69,619.923 L190.69,637.561 C196.891,624.088 203.85,619.056 218.827,618.767 L218.827,627.965" fill="#FFFFFE"/>
    <path d="M253.118,625.365 C237.02,625.365 230.579,637.863 228.821,651.612 L276.727,651.612 C275.764,635.274 266.866,625.365 253.118,625.365 z M253.538,696.087 C232.975,696.087 219.682,681.013 219.682,657.656 C219.682,634.262 233.577,617.913 253.346,617.913 C275.186,617.913 285.782,635.984 285.782,656.356 L285.782,658.932 L228.821,658.932 C228.821,674.416 236.02,688.754 253.815,688.754 C265.542,688.754 273.477,682.169 276.317,669.407 L285.034,669.407 C281.917,685.745 270.887,696.087 253.538,696.087" fill="#FFFFFE"/>
    <path d="M298.375,591.533 L307.307,591.533 L307.307,693.643 L298.375,693.643 z" fill="#FFFFFE"/>
    <path d="M354.071,625.365 C337.961,625.365 331.52,637.863 329.799,651.612 L377.717,651.612 C376.717,635.274 367.833,625.365 354.071,625.365 z M354.481,696.087 C333.977,696.087 320.649,681.013 320.649,657.656 C320.649,634.262 334.553,617.913 354.348,617.913 C376.127,617.913 386.735,635.984 386.735,656.356 L386.735,658.932 L329.799,658.932 C329.799,674.416 336.999,688.754 354.756,688.754 C366.543,688.754 374.43,682.169 377.319,669.407 L386.036,669.407 C382.87,685.745 371.829,696.087 354.481,696.087" fill="#FFFFFE"/>
    <path d="M443.225,641.426 C442.407,630.265 435.208,625.365 423.311,625.365 C412.717,625.365 406.083,630.109 406.083,637.561 C406.083,646.736 413.295,648.313 427.2,651.467 C439.252,654.201 454.604,657.909 454.604,673.259 C454.604,686.744 442.803,695.943 425.323,695.943 C406.383,695.943 395.512,686.479 395.067,669.551 L403.831,669.551 C403.831,681.88 411.958,688.478 425.612,688.478 C437.651,688.478 445.694,682.747 445.694,674.138 C445.694,663.796 433.221,661.508 425.456,659.655 C413.426,656.765 397.053,654.911 397.053,638.706 C397.053,625.798 407.395,617.913 424.202,617.913 C440.383,617.913 452.002,625.654 452.002,641.426 L443.225,641.426" fill="#FFFFFE"/>
    <path d="M512.25,641.426 C511.372,630.265 504.219,625.365 492.311,625.365 C481.68,625.365 475.083,630.109 475.083,637.561 C475.083,646.736 482.235,648.313 496.153,651.467 C508.192,654.201 523.59,657.909 523.59,673.259 C523.59,686.744 511.78,695.943 494.311,695.943 C475.409,695.943 464.475,686.479 464.079,669.551 L472.819,669.551 C472.819,681.88 480.971,688.478 494.586,688.478 C506.627,688.478 514.682,682.747 514.682,674.138 C514.682,663.796 502.221,661.508 494.467,659.655 C482.403,656.765 466.065,654.911 466.065,638.706 C466.065,625.798 476.372,617.913 493.131,617.913 C509.348,617.913 520.991,625.654 520.991,641.426 L512.25,641.426" fill="#FFFFFE"/>
    <path d="M621.102,641.426 C620.247,630.265 613.047,625.365 601.165,625.365 C590.545,625.365 583.948,630.109 583.948,637.561 C583.948,646.736 591.11,648.313 604.981,651.467 C617.081,654.201 632.444,657.909 632.444,673.259 C632.444,686.744 620.645,695.943 603.139,695.943 C584.235,695.943 573.292,686.479 572.907,669.551 L581.635,669.551 C581.635,681.88 589.834,688.478 603.44,688.478 C615.479,688.478 623.545,682.747 623.545,674.138 C623.545,663.796 611.049,661.508 603.319,659.655 C591.28,656.765 574.917,654.911 574.917,638.706 C574.917,625.798 585.211,617.913 602.006,617.913 C618.211,617.913 629.842,625.654 629.842,641.426 L621.102,641.426" fill="#FFFFFE"/>
    <path d="M651.321,656.765 C651.321,676.149 661.219,688.334 677.459,688.334 C693.077,688.334 702.985,676.149 702.985,656.921 C702.985,637.706 692.932,625.365 677.135,625.365 C661.52,625.365 651.321,637.706 651.321,656.765 z M712.026,657.054 C712.026,680.869 698.674,695.798 677.303,695.798 C655.825,695.798 642.184,680.58 642.184,656.765 C642.184,633.119 655.909,617.78 677.303,617.78 C698.518,617.78 712.026,632.974 712.026,657.054" fill="#FFFFFE"/>
    <path d="M725.883,591.533 L734.793,591.533 L734.793,693.643 L725.883,693.643 z" fill="#FFFFFE"/>
    <path d="M811.704,693.643 L803.36,693.643 L803.36,680.026 C798.014,690.332 789.875,695.798 777.415,695.798 C762.051,695.798 752.022,686.888 752.022,668.973 L752.022,619.923 L761.04,619.923 L761.04,665.121 C761.04,679.592 765.483,687.9 779.69,687.9 C794.463,687.9 802.782,675.571 802.782,660.654 L802.782,619.923 L811.704,619.923 L811.704,693.643" fill="#FFFFFE"/>
    <path d="M858.586,627.244 L843.37,627.244 L843.37,673.994 C843.37,681.447 843.092,686.323 852.723,686.323 C854.276,686.323 855.999,686.178 858.586,685.889 L858.586,693.643 C855.264,694.064 853.844,694.185 850.688,694.185 C844.235,694.185 837.096,692.909 835.338,685.745 C834.676,682.747 834.508,680.58 834.508,669.551 L834.508,627.244 L821.444,627.244 L821.444,619.923 L834.508,619.923 L834.508,597.409 L843.37,597.409 L843.37,619.923 L858.586,619.923 L858.586,627.244" fill="#FFFFFE"/>
    <path d="M871.795,619.923 L880.825,619.923 L880.825,693.643 L871.795,693.643 z M871.795,591.087 L880.825,591.087 L880.825,605.873 L871.795,605.873 z" fill="#FFFFFE"/>
    <path d="M903.592,656.765 C903.592,676.149 913.524,688.334 929.694,688.334 C945.309,688.334 955.231,676.149 955.231,656.921 C955.231,637.706 945.19,625.365 929.405,625.365 C913.813,625.365 903.592,637.706 903.592,656.765 z M964.237,657.054 C964.237,680.869 950.932,695.798 929.549,695.798 C908.071,695.798 894.418,680.58 894.418,656.765 C894.418,633.119 908.167,617.78 929.549,617.78 C950.764,617.78 964.237,632.974 964.237,657.054" fill="#FFFFFE"/>
    <path d="M986.354,633.817 C992.241,623.367 999.694,617.913 1012.43,617.913 C1026.8,617.913 1037.99,625.365 1037.99,643.449 L1037.99,693.643 L1028.95,693.643 L1028.95,646.302 C1028.95,631.096 1021.32,625.798 1010.19,625.798 C996.696,625.798 986.907,634.696 986.907,653.779 L986.907,693.643 L977.866,693.643 L977.866,619.923 L986.354,619.923 L986.354,633.817" fill="#FFFFFE"/>
    <path d="M1099.08,641.426 C1098.23,630.265 1091.03,625.365 1079.13,625.365 C1068.55,625.365 1061.94,630.109 1061.94,637.561 C1061.94,646.736 1069.13,648.313 1083.01,651.467 C1095.05,654.201 1110.41,657.909 1110.41,673.259 C1110.41,686.744 1098.65,695.943 1081.17,695.943 C1062.23,695.943 1051.32,686.479 1050.89,669.551 L1059.65,669.551 C1059.65,681.88 1067.83,688.478 1081.43,688.478 C1093.51,688.478 1101.5,682.747 1101.5,674.138 C1101.5,663.796 1089.04,661.508 1081.3,659.655 C1069.22,656.765 1052.89,654.911 1052.89,638.706 C1052.89,625.798 1063.25,617.913 1080.01,617.913 C1096.22,617.913 1107.82,625.654 1107.82,641.426 L1099.08,641.426" fill="#FFFFFE"/>
    <path d="M51.461,740.201 C48.405,739.779 47.428,739.779 45.43,739.779 C34.678,739.779 34.811,745.221 34.811,753.842 L34.811,761.15 L49.585,761.15 L49.585,768.445 L34.811,768.445 L34.811,834.869 L25.77,834.869 L25.77,768.445 L13.151,768.445 L13.151,761.15 L25.77,761.15 L25.77,752.697 C25.77,739.213 30.381,732.05 44.563,732.05 C47.176,732.05 48.295,732.182 51.461,732.616 L51.461,740.201" fill="#FFFFFE"/>
    <path d="M63.647,797.992 C63.647,817.377 73.506,829.561 89.737,829.561 C105.375,829.561 115.26,817.377 115.26,798.137 C115.26,778.92 105.208,766.604 89.46,766.604 C73.833,766.604 63.647,778.92 63.647,797.992 z M124.303,798.293 C124.303,822.096 110.975,837 89.616,837 C68.114,837 54.485,821.807 54.485,797.992 C54.485,774.346 68.233,758.994 89.616,758.994 C110.819,758.994 124.303,774.201 124.303,798.293" fill="#FFFFFE"/>
    <path d="M175.604,769.168 C174.641,769.168 173.75,769.049 173.196,769.049 C162.157,769.049 152.573,775.936 149.67,786.529 C148.54,790.984 147.961,795.272 147.961,804.734 L147.961,834.869 L139.088,834.869 L139.088,761.15 L147.551,761.15 L147.551,778.789 C153.692,765.291 160.711,760.295 175.604,759.994 L175.604,769.168" fill="#FFFFFE"/>
    <path d="M323.815,834.869 L314.497,834.869 L314.497,773.201 C314.497,762.438 314.893,751.844 315.616,741.068 C313.604,747.232 311.317,753.553 308.862,759.572 L278.75,834.869 L270.008,834.869 L239.44,760.44 C236.887,754.264 234.708,747.955 232.709,741.658 C233.444,752.107 233.889,762.438 233.889,772.912 L233.889,834.869 L224.547,834.869 L224.547,732.76 L237.743,732.76 L267.397,805.613 C270.008,811.922 272.151,818.363 274.463,824.84 C276.727,818.508 278.75,812.055 281.194,805.891 L310.475,732.76 L323.815,732.76 L323.815,834.869" fill="#FFFFFE"/>
    <path d="M405.12,834.869 L338.985,834.869 C340.26,813.041 354.204,804.469 370.553,793.705 C381.883,786.24 395.512,777.766 395.512,762.438 C395.512,749.965 386.614,741.791 373.262,741.791 C355.901,741.791 350.303,754.42 350.303,769.338 L341.477,769.338 L341.477,768.049 C341.477,746.799 353.588,733.904 373.708,733.904 C392.477,733.904 404.651,745.09 404.651,762.307 C404.651,782.221 386.879,792.982 372.131,802.447 C362.51,808.635 351.157,815.365 349.17,826.984 C350.182,826.984 351.073,826.828 351.614,826.828 L405.12,826.828 L405.12,834.869" fill="#FFFFFE"/>
    <path d="M523.014,834.869 L513.659,834.869 L513.659,773.201 C513.659,762.438 514.081,751.844 514.838,741.068 C512.815,747.232 510.528,753.553 508.108,759.572 L477.959,834.869 L469.184,834.869 L438.674,760.44 C436.075,754.264 433.956,747.955 431.92,741.658 C432.643,752.107 433.1,762.438 433.1,772.912 L433.1,834.869 L423.733,834.869 L423.733,732.76 L436.917,732.76 L466.667,805.613 C469.184,811.922 471.387,818.363 473.663,824.84 C475.961,818.508 477.959,812.055 480.405,805.891 L509.637,732.76 L523.014,732.76 L523.014,834.869" fill="#FFFFFE"/>
    <path d="M654.067,834.869 L644.327,834.869 L629.698,786.398 C628.567,782.389 627.7,779.223 625.965,771.902 C624.088,779.643 623.245,782.785 622.245,786.398 L607.907,834.869 L597.866,834.869 L573.93,761.15 L583.633,761.15 L597.672,806.035 C599.286,810.922 600.309,815.076 602.885,825.106 C605.739,813.486 604.426,817.088 607.737,805.734 L620.934,761.15 L631.288,761.15 L645.278,807.889 C646.495,811.766 647.348,815.522 649.467,825.106 C651.479,816.522 652.489,812.922 653.922,808.178 L668.743,761.15 L678.014,761.15 L654.067,834.869" fill="#FFFFFE"/>
    <path d="M693.245,797.992 C693.245,817.377 703.129,829.561 719.334,829.561 C734.987,829.561 744.834,817.377 744.834,798.137 C744.834,778.92 734.831,766.604 719.034,766.604 C703.442,766.604 693.245,778.92 693.245,797.992 z M753.889,798.293 C753.889,822.096 740.561,837 719.167,837 C697.663,837 684.071,821.807 684.071,797.992 C684.071,774.346 697.784,758.994 719.167,758.994 C740.405,758.994 753.889,774.201 753.889,798.293" fill="#FFFFFE"/>
    <path d="M805.25,769.168 C804.227,769.168 803.36,769.049 802.782,769.049 C791.729,769.049 782.122,775.936 779.268,786.529 C778.125,790.984 777.571,795.272 777.571,804.734 L777.571,834.869 L768.663,834.869 L768.663,761.15 L777.102,761.15 L777.102,778.789 C783.29,765.291 790.309,760.295 805.25,759.994 L805.25,769.168" fill="#FFFFFE"/>
    <path d="M812.981,732.76 L821.901,732.76 L821.901,834.869 L812.981,834.869 z" fill="#FFFFFE"/>
    <path d="M904.026,732.76 L904.026,834.869 L895.887,834.869 L895.887,820.387 C891.432,831.57 881.391,837 869.327,837 C848.967,837 836.073,821.951 836.073,797.992 C836.073,774.346 848.967,758.994 869.061,758.994 C880.825,758.994 890.588,764.16 895.284,774.924 L895.284,732.76 z M870.049,766.447 C863.879,766.501 857.973,768.624 853.582,773.065 C847.187,779.532 845.09,789.067 845.09,797.871 C845.09,799.062 845.087,800.257 845.203,801.443 C845.992,809.465 847.744,817.109 853.61,823.057 C861.106,830.658 874.031,831.844 883.073,826.31 C886.051,824.486 888.474,821.992 890.345,819.055 C894.384,812.716 895.345,805.332 895.573,797.992 C895.573,782.076 888.133,766.447 870.049,766.447 z z" fill="#FFFFFE"/>
    <path d="M122.527,48.521 L122.527,173.897 C172.745,173.617 213.441,145.716 213.441,111.228 C213.441,76.767 172.745,48.801 122.527,48.521" fill="#FFFFFE"/>
    <path d="M416.698,151.717 C404.302,142.712 385.027,138.263 358.778,138.263 L307.853,138.263 L307.853,247.416 L355.832,247.416 C370.93,247.416 381.88,246.686 388.653,245.277 C419.665,238.468 435.193,220.508 435.193,191.341 C435.193,173.925 429.042,160.721 416.698,151.717" fill="#FFFFFE"/>
    <path d="M1078.29,180.047 L828.147,398.452 L1077.78,398.452 L1077.78,534.563 L662.498,534.563 C662.498,524.649 662.498,438.005 662.498,387.052 C662.498,368.069 656.388,353.893 648.457,343.48 L865.052,155.986 L654.857,155.986 L654.857,149.471 C654.857,90.235 621.828,40.304 576.761,24.998 L1078.29,24.998 L1078.29,180.047 z M444.685,534.262 L440.708,406.842 C439.822,377.718 385.191,356.64 360.208,356.64 L316.615,356.64 L316.615,534.262 L121.512,534.262 L121.512,509.158 L213.441,509.158 L213.441,200.632 L122.527,200.632 L122.527,506.668 L33.215,506.668 L33.215,198.143 L121.512,198.143 L121.512,175.041 C69.9,174.662 28.194,146.346 28.194,111.434 C28.194,76.523 69.9,48.229 121.512,47.857 L121.512,24.69 L426.462,24.69 C481.799,24.69 525,31.249 556.084,44.345 C606.551,65.695 631.713,104.482 631.713,160.807 C631.713,196.734 620.097,226.588 596.795,250.341 C575.466,272.177 547.321,285.982 512.383,291.818 C550.427,299.249 632.708,324.461 634.159,386.437 L637.721,534.262 L444.685,534.262 z M1104.54,0.315 L122.527,0.315 L122.527,24.068 C120.303,24.14 117.892,24.197 115.425,24.068 C112.349,24.183 109.259,24.361 106.27,24.618 C47.119,26.879 -0,64.83 -0,111.328 C-0,123.787 3.39,135.617 9.462,146.323 L9.462,532.273 L98.789,532.273 L98.789,557.393 L1104.54,557.393 L1104.54,374.22 L899.112,374.22 L1104.54,188.53 L1104.54,0.315" fill="#FFFFFE"/>
  </g>
  <defs/>
</svg>
